<svg width="60" height="81" viewBox="0 0 60 81" fill="none" xmlns="http://www.w3.org/2000/svg">
<path d="M29.9992 80.5567C46.29 80.5567 59.4964 62.5239 59.4964 40.2794C59.4964 18.0348 46.29 0.00204468 29.9992 0.00204468C13.7083 0.00204468 0.501953 18.0348 0.501953 40.2794C0.501953 62.5239 13.7083 80.5567 29.9992 80.5567Z" fill="#010029"/>
<path d="M30.013 80.556C28.9863 80.4897 27.9498 80.4903 26.936 80.3388C25.8354 80.1739 24.7499 79.8926 23.6692 79.6166C22.4053 79.2938 21.1781 78.8561 20.0171 78.2508C19.0992 77.7722 18.1399 77.3529 17.2823 76.7821C16.1052 75.9995 14.9755 75.1361 13.8841 74.2365C12.9743 73.4868 12.1362 72.6476 11.2927 71.8214C10.8852 71.422 10.5316 70.9665 10.1678 70.5251C9.64395 69.8897 9.09958 69.2671 8.62366 68.5972C7.96018 67.6631 7.32957 66.7032 6.72592 65.7287C6.19449 64.8712 5.69647 63.9911 5.22702 63.098C4.86644 62.4119 4.56084 61.695 4.25255 60.9825C3.90167 60.1719 3.5605 59.3564 3.24358 58.5323C2.99996 57.9001 2.78167 57.256 2.58441 56.6076C2.24701 55.4962 1.90314 54.3843 1.62018 53.2584C1.31511 52.0446 1.04347 50.8206 0.819794 49.5896C0.586416 48.3052 0.413404 47.0095 0.244165 45.7149C0.169786 45.1484 0.193501 44.569 0.133135 43.9998C-0.0711373 42.0849 0.020489 40.1639 0.020489 38.2463C0.020489 37.4345 0.115888 36.6223 0.190806 35.8122C0.28351 34.8059 0.37352 33.7986 0.512037 32.7983C0.806858 30.6698 1.23858 28.5667 1.80828 26.4944C2.08801 25.4778 2.36936 24.4603 2.70191 23.4599C3.00589 22.5453 3.35623 21.6441 3.7292 20.7553C4.18733 19.6634 4.67511 18.5822 5.18121 17.5112C5.44854 16.9458 5.77354 16.4068 6.08723 15.8646C6.43649 15.2615 6.77928 14.653 7.16572 14.0736C7.81196 13.1056 8.47382 12.1462 9.16264 11.2079C9.56957 10.6533 10.0212 10.1283 10.4858 9.62057C11.2037 8.83582 11.9271 8.05322 12.6919 7.31536C13.3284 6.70092 14.0075 6.12637 14.7055 5.58147C15.4827 4.97511 16.2755 4.38116 17.1099 3.85835C17.9943 3.30428 18.9235 2.81812 19.8533 2.34059C21.6858 1.39953 23.6488 0.822287 25.6527 0.394878C26.5221 0.209469 27.4184 0.117843 28.3071 0.0623279C29.3269 -0.00127151 30.3531 -0.0185188 31.3739 0.0213656C32.1738 0.0526263 32.9801 0.148025 33.7632 0.310258C34.9862 0.564117 36.2048 0.856243 37.4024 1.21035C38.6264 1.57201 39.7804 2.12392 40.9214 2.69739C42.6035 3.54251 44.1429 4.60807 45.5916 5.79652C46.5025 6.54354 47.3525 7.36764 48.1987 8.18904C48.8061 8.77922 49.4038 9.38935 49.931 10.0501C50.7567 11.0855 51.5592 12.1446 52.2971 13.243C53.0344 14.3404 53.707 15.4847 54.3581 16.6364C54.8141 17.4433 55.2092 18.2873 55.5891 19.1341C56.0457 20.1506 56.5033 21.1703 56.8757 22.2186C57.3392 23.5224 57.758 24.8451 58.1202 26.1807C58.5061 27.6041 58.8484 29.0432 59.1259 30.492C59.383 31.8329 59.5533 33.1917 59.7156 34.5489C59.8331 35.5325 59.9118 36.5242 59.9409 37.5143C59.9894 39.1916 60.0131 40.8711 59.9904 42.5489C59.9781 43.4851 59.8665 44.4213 59.7711 45.3548C59.6563 46.4748 59.549 47.5975 59.369 48.7078C59.182 49.8639 58.9265 51.0098 58.677 52.1546C58.2846 53.9569 57.7812 55.7302 57.1716 57.4705C56.8326 58.4391 56.4601 59.3979 56.057 60.3411C55.6366 61.3248 55.1989 62.3041 54.6993 63.2489C54.0892 64.4023 53.437 65.5363 52.746 66.6434C52.2205 67.4864 51.6266 68.2889 51.0256 69.0812C50.464 69.8212 49.8878 70.5558 49.2562 71.2355C48.4655 72.0865 47.6495 72.9225 46.7747 73.6846C45.7426 74.5842 44.6721 75.4498 43.55 76.2329C42.6159 76.8851 41.607 77.4434 40.5872 77.9566C39.6031 78.4524 38.5822 78.8917 37.5425 79.2566C36.3562 79.6732 35.1349 79.9793 33.8883 80.2014C32.6017 80.4305 31.3152 80.5151 30.0125 80.555L30.013 80.556ZM30.0028 79.615C30.0038 79.5859 30.0049 79.5568 30.006 79.5271C30.5709 79.5271 31.1357 79.5401 31.7 79.5244C32.9294 79.4899 34.1319 79.2593 35.3171 78.9547C36.1202 78.7488 36.9136 78.4966 37.6967 78.2234C38.2847 78.0185 38.8587 77.7663 39.4236 77.5022C40.0369 77.2155 40.6363 76.8985 41.234 76.58C41.6275 76.3703 42.022 76.1574 42.389 75.9057C43.1344 75.3937 43.8804 74.8779 44.5908 74.319C45.3076 73.7558 46.0153 73.1731 46.6658 72.536C47.4888 71.7303 48.266 70.876 49.033 70.0152C49.614 69.3631 50.1907 68.6991 50.6909 67.9849C51.4131 66.9544 52.0955 65.8926 52.7374 64.8103C53.347 63.783 53.9151 62.7277 54.4406 61.6552C54.8874 60.7437 55.2787 59.8016 55.6398 58.8525C56.106 57.6258 56.569 56.3926 56.9398 55.1351C57.357 53.7209 57.7063 52.2839 58.0178 50.8427C58.2722 49.6634 58.4479 48.4653 58.6204 47.2704C58.7443 46.4128 58.8155 45.5467 58.8915 44.6827C58.9626 43.8721 59.0569 43.0593 59.0575 42.2476C59.0586 40.3386 59.1453 38.4268 58.9475 36.5204C58.8882 35.9507 58.9022 35.3735 58.8354 34.8054C58.7174 33.8018 58.5977 32.7961 58.4145 31.8033C58.1563 30.4057 57.8636 29.013 57.5424 27.6284C57.0201 25.3776 56.3195 23.1802 55.4 21.0598C54.8615 19.8186 54.3026 18.5811 53.665 17.3889C52.9832 16.1147 52.2227 14.8799 51.4487 13.6581C50.948 12.8674 50.3724 12.1225 49.8075 11.3744C49.5127 10.9836 49.171 10.6285 48.8481 10.2593C48.5668 9.93695 48.3022 9.59632 47.9949 9.30042C47.1655 8.50111 46.3311 7.70504 45.4725 6.937C44.1865 5.78628 42.7911 4.77246 41.2723 3.95806C40.1043 3.33177 38.8938 2.76854 37.6584 2.28993C36.6381 1.89432 35.5666 1.60434 34.4952 1.37744C33.4856 1.16346 32.4487 1.02818 31.4181 0.976974C30.2561 0.919303 29.0876 0.988293 27.9223 1.01524C27.5925 1.02279 27.2578 1.0492 26.9354 1.11441C25.9912 1.30629 25.0388 1.47553 24.115 1.74071C23.1146 2.02798 22.1186 2.35676 21.1635 2.76746C19.4528 3.50317 17.8046 4.37254 16.3321 5.52703C15.2897 6.34412 14.2657 7.18762 13.2718 8.064C12.7032 8.56525 12.2057 9.14789 11.6894 9.70627C11.2037 10.2318 10.7187 10.7594 10.2659 11.3119C9.83582 11.8363 9.43967 12.3898 9.04245 12.9407C8.71798 13.3907 8.39837 13.8462 8.10516 14.3172C7.71872 14.9376 7.35544 15.573 6.99002 16.2063C6.65531 16.7863 6.29797 17.3565 6.00962 17.9591C5.50244 19.0204 5.00712 20.0902 4.56839 21.1811C4.0957 22.3572 3.65428 23.5488 3.27161 24.7567C2.89648 25.9414 2.58872 27.1492 2.29606 28.3576C2.04166 29.4102 1.81097 30.4715 1.64066 31.5403C1.44824 32.7481 1.31781 33.9668 1.19223 35.1838C1.09413 36.1351 0.991189 37.0907 0.982565 38.0447C0.95885 40.6964 0.898485 43.3515 1.24613 45.9919C1.3674 46.9136 1.44716 47.8422 1.60778 48.7569C1.82391 49.9906 2.07022 51.2211 2.35642 52.4402C2.83503 54.4797 3.43492 56.4847 4.20458 58.4358C4.5118 59.2152 4.80554 60.001 5.15533 60.761C5.54286 61.6029 5.96219 62.4324 6.41331 63.2419C7.03367 64.356 7.65188 65.476 8.35363 66.5388C9.04083 67.5801 9.80456 68.5751 10.585 69.5496C11.1752 70.2863 11.8414 70.9628 12.4806 71.6597C13.4804 72.7495 14.6139 73.6916 15.7802 74.5939C16.9282 75.4821 18.1318 76.2868 19.4399 76.9222C20.209 77.2958 20.9738 77.6854 21.7683 77.9975C22.5719 78.3134 23.4003 78.5775 24.2352 78.8006C25.1568 79.0469 26.0893 79.2803 27.0319 79.4107C28.0129 79.5465 29.0116 79.5519 30.0028 79.6144V79.615Z" fill="#010029"/>
<path d="M30.0028 79.6151C29.0116 79.5525 28.0129 79.5472 27.032 79.4113C26.0893 79.2809 25.1569 79.0475 24.2352 78.8012C23.4003 78.5781 22.5719 78.314 21.7683 77.9981C20.9739 77.6861 20.209 77.2964 19.4399 76.9229C18.1318 76.2874 16.9283 75.4827 15.7803 74.5945C14.6139 73.6922 13.481 72.7501 12.4806 71.6603C11.8414 70.9634 11.1752 70.287 10.585 69.5502C9.80407 68.5757 9.04087 67.5808 8.35368 66.5395C7.65193 65.4766 7.03372 64.3566 6.41335 63.2425C5.96277 62.433 5.5429 61.6035 5.15538 60.7616C4.80558 60.0017 4.51184 59.2153 4.20462 58.4365C3.43496 56.4854 2.83508 54.4804 2.35646 52.4409C2.07027 51.2217 1.82395 49.9912 1.60782 48.7575C1.44721 47.8428 1.36744 46.9142 1.24617 45.9925C0.898528 43.3521 0.958894 40.6971 0.982609 38.0453C0.991232 37.0908 1.09418 36.1352 1.19227 35.1844C1.31785 33.9674 1.44829 32.7488 1.6407 31.5409C1.81102 30.4721 2.0417 29.4109 2.2961 28.3582C2.58822 27.1498 2.89652 25.942 3.27165 24.7573C3.65432 23.5495 4.09575 22.3578 4.56843 21.1817C5.00716 20.0908 5.50248 19.021 6.00966 17.9597C6.29801 17.3572 6.65535 16.7869 6.99006 16.207C7.35549 15.5737 7.71822 14.9382 8.10521 14.3179C8.39841 13.8468 8.71803 13.3919 9.04249 12.9413C9.43972 12.3905 9.83587 11.8375 10.266 11.3125C10.7193 10.7595 11.2043 10.2324 11.6894 9.70689C12.2058 9.14851 12.7032 8.56588 13.2719 8.06463C14.2652 7.18879 15.2892 6.34529 16.3322 5.52766C17.8047 4.37316 19.4529 3.50379 21.1636 2.76809C22.1186 2.35739 23.1147 2.02807 24.115 1.74133C25.0394 1.47616 25.9917 1.30638 26.9355 1.11504C27.2583 1.04929 27.5925 1.02342 27.9224 1.01587C29.0876 0.988921 30.2561 0.919932 31.4182 0.977602C32.4487 1.02881 33.4857 1.16409 34.4952 1.37806C35.5672 1.60497 36.6387 1.89548 37.6585 2.29055C38.8938 2.76917 40.1043 3.3324 41.2723 3.95869C42.7906 4.77309 44.1866 5.7869 45.4726 6.93762C46.3312 7.70621 47.1655 8.50174 47.995 9.30104C48.3022 9.59694 48.5668 9.93758 48.8482 10.2599C49.171 10.6291 49.5127 10.9843 49.8076 11.375C50.3719 12.1237 50.9475 12.868 51.4488 13.6587C52.2227 14.8805 52.9832 16.1148 53.665 17.3895C54.3027 18.5817 54.8621 19.8187 55.4 21.0605C56.3195 23.1808 57.0202 25.3782 57.5425 27.629C57.8637 29.0136 58.1564 30.4058 58.4145 31.8039C58.5978 32.7967 58.7174 33.8025 58.8355 34.806C58.9023 35.3741 58.8883 35.9519 58.9476 36.5211C59.1459 38.4274 59.0586 40.3392 59.0575 42.2482C59.0575 43.0599 58.9627 43.8727 58.8915 44.6833C58.8155 45.5473 58.7438 46.4129 58.6204 47.271C58.4479 48.4659 58.2722 49.664 58.0178 50.8433C57.7068 52.2851 57.357 53.722 56.9399 55.1358C56.5691 56.3937 56.1061 57.6264 55.6399 58.8531C55.2787 59.8022 54.8874 60.7444 54.4406 61.6558C53.9146 62.7283 53.3465 63.7837 52.7375 64.811C52.0955 65.8932 51.4132 66.955 50.691 67.9855C50.1908 68.6991 49.6141 69.3637 49.0331 70.0159C48.2666 70.8766 47.4894 71.7309 46.6659 72.5367C46.0153 73.1732 45.3071 73.7564 44.5908 74.3196C43.8804 74.8785 43.1345 75.3938 42.3891 75.9064C42.0226 76.1581 41.6275 76.371 41.234 76.5806C40.6363 76.8992 40.037 77.2161 39.4236 77.5028C38.8588 77.7669 38.2848 78.0192 37.6967 78.224C36.9136 78.4967 36.1202 78.7489 35.3171 78.9554C34.1314 79.2593 32.9289 79.49 31.7001 79.5251C31.1357 79.5407 30.5709 79.5278 30.006 79.5278C30.005 79.5569 30.0039 79.586 30.0028 79.6156V79.6151ZM30.2211 78.6341C30.9293 78.5781 31.8574 78.5333 32.7775 78.4218C33.5428 78.3291 34.3146 78.2164 35.0547 78.0089C36.1218 77.7098 37.1707 77.3395 38.2125 76.9579C39.4403 76.5084 40.5819 75.8724 41.6911 75.1884C43.1269 74.3034 44.4701 73.2831 45.6925 72.1249C46.6707 71.1978 47.5902 70.2045 48.4898 69.1993C49.0433 68.5811 49.5149 67.8891 50.0145 67.224C50.9788 65.9407 51.8083 64.57 52.5828 63.1681C53.0312 62.357 53.4252 61.514 53.8073 60.6694C54.2315 59.7311 54.6584 58.7895 55.0055 57.8215C55.4744 56.5128 55.8975 55.1864 56.2839 53.8514C56.5976 52.7686 56.8445 51.6653 57.0892 50.5641C57.2482 49.8484 57.3544 49.1202 57.4767 48.3964C57.5791 47.7879 57.6831 47.1788 57.7629 46.5671C57.8211 46.1181 57.841 45.6643 57.8788 45.2126C57.9537 44.3093 58.0895 43.406 58.0927 42.5026C58.1003 40.3031 58.1995 38.0997 57.93 35.9056C57.8405 35.1758 57.7866 34.4422 57.6982 33.7124C57.6179 33.0538 57.5317 32.3952 57.4136 31.7425C57.2158 30.6457 57.0337 29.5434 56.7663 28.4628C56.4311 27.1078 56.0495 25.762 55.6275 24.4312C55.0437 22.5912 54.3242 20.8007 53.4516 19.077C52.9169 18.0217 52.3834 16.9615 51.7721 15.9499C51.1302 14.887 50.436 13.8495 49.6912 12.8556C48.9468 11.8633 48.1384 10.9147 47.3073 9.99309C46.7262 9.34901 46.0773 8.76206 45.4268 8.1859C44.7487 7.58548 44.0529 7.00122 43.3285 6.45847C41.8544 5.35303 40.2666 4.43569 38.5731 3.70375C37.0327 3.03758 35.4443 2.53363 33.787 2.24528C32.7155 2.05879 31.6429 1.90411 30.5542 1.92836C29.5361 1.951 28.5115 1.9386 27.5025 2.05232C26.5296 2.16174 25.5665 2.38649 24.6103 2.60909C23.4009 2.89044 22.241 3.33186 21.1129 3.84712C19.5687 4.55264 18.0952 5.39076 16.7466 6.42344C15.8342 7.12195 14.9432 7.85496 14.0986 8.63325C13.3306 9.34093 12.6245 10.1187 11.9163 10.8883C11.4657 11.3783 11.0324 11.8898 10.6406 12.4277C9.97169 13.3455 9.30982 14.2726 8.70293 15.232C8.09389 16.1951 7.52527 17.1868 6.99437 18.1958C6.54325 19.0539 6.1471 19.9432 5.77089 20.8373C5.32677 21.8921 4.90206 22.9566 4.521 24.0356C4.20947 24.9179 3.9707 25.8261 3.70607 26.7246C3.13367 28.6698 2.74938 30.6564 2.43408 32.656C2.28532 33.6009 2.18776 34.5543 2.09829 35.5072C2.02014 36.341 1.94846 37.1786 1.94253 38.0146C1.93067 39.638 1.94522 41.2619 1.99211 42.8848C2.02068 43.8619 2.11446 44.838 2.20986 45.8114C2.30149 46.7449 2.40012 47.6806 2.55481 48.605C2.74507 49.7438 2.96551 50.8794 3.22907 52.0038C3.65325 53.8136 4.17066 55.5987 4.82498 57.3407C5.12412 58.1373 5.44966 58.9248 5.78167 59.709C6.09051 60.4388 6.40635 61.1669 6.75129 61.8805C7.01485 62.4254 7.30752 62.9585 7.6239 63.4748C8.3429 64.6493 9.06243 65.8253 9.82293 66.9733C10.6621 68.2405 11.6398 69.4079 12.6892 70.5009C13.6281 71.4797 14.6247 72.4132 15.6708 73.2751C16.5747 74.0194 17.5729 74.6527 18.5511 75.3022C19.6566 76.0357 20.8504 76.6178 22.0847 77.0889C23.1271 77.4866 24.2088 77.7917 25.2889 78.0795C26.0144 78.2725 26.7619 78.4061 27.5084 78.4886C28.3336 78.5797 29.1685 78.5829 30.2222 78.6352L30.2211 78.6341Z" fill="white"/>
<path d="M30.2211 78.6341C29.1674 78.5818 28.3326 78.5786 27.5074 78.4875C26.7609 78.4051 26.0133 78.2714 25.2879 78.0784C24.2078 77.7912 23.1266 77.4861 22.0836 77.0878C20.8494 76.6167 19.6555 76.0346 18.5501 75.3011C17.5719 74.6516 16.5737 74.0183 15.6698 73.274C14.6231 72.4122 13.6271 71.4781 12.6882 70.4999C11.6388 69.4063 10.6611 68.2394 9.82189 66.9723C9.06139 65.8242 8.34186 64.6487 7.62286 63.4738C7.30702 62.9574 7.01381 62.4244 6.75025 61.8795C6.40531 61.1658 6.08947 60.4377 5.78063 59.7079C5.44862 58.9237 5.12308 58.1362 4.82395 57.3396C4.17016 55.5977 3.65221 53.8126 3.22803 52.0027C2.96447 50.8789 2.74403 49.7427 2.55377 48.6039C2.39908 47.679 2.30045 46.7439 2.20882 45.8104C2.11342 44.837 2.01964 43.8603 1.99108 42.8837C1.94365 41.2614 1.92963 39.6369 1.94149 38.0135C1.94742 37.177 2.01964 36.3394 2.09725 35.5062C2.18619 34.5538 2.28374 33.5998 2.43304 32.655C2.74834 30.6554 3.13263 28.6687 3.70503 26.7235C3.96966 25.825 4.20843 24.9169 4.51996 24.0346C4.90102 22.9555 5.32573 21.891 5.76985 20.8363C6.1466 19.9421 6.54221 19.0528 6.99333 18.1947C7.52369 17.1863 8.09231 16.194 8.70189 15.2309C9.30878 14.2715 9.97011 13.345 10.6395 12.4266C11.0314 11.8887 11.4647 11.3772 11.9153 10.8873C12.6235 10.1176 13.3296 9.33985 14.0976 8.63218C14.9422 7.85389 15.8337 7.12088 16.7456 6.42237C18.0941 5.38968 19.5672 4.55157 21.1119 3.84605C22.24 3.33079 23.3998 2.88936 24.6093 2.60802C25.5654 2.38596 26.5286 2.1612 27.5015 2.05125C28.5104 1.93753 29.535 1.95046 30.5531 1.92729C31.6424 1.90303 32.715 2.05772 33.7859 2.24421C35.4433 2.53256 37.0311 3.0365 38.5721 3.70268C40.265 4.43461 41.8534 5.35195 43.3275 6.4574C44.0519 7.00069 44.7477 7.5844 45.4257 8.18482C46.0763 8.76099 46.7252 9.34794 47.3062 9.99202C48.1373 10.9137 48.9463 11.8617 49.6901 12.8545C50.435 13.8479 51.1286 14.8854 51.7711 15.9488C52.3823 16.9605 52.9159 18.0206 53.4506 19.076C54.3232 20.7996 55.0432 22.5901 55.6264 24.4302C56.0484 25.7609 56.43 27.1067 56.7653 28.4617C57.0326 29.5424 57.2148 30.6446 57.4126 31.7414C57.5306 32.3941 57.6169 33.0527 57.6972 33.7114C57.7861 34.4412 57.8395 35.1752 57.9289 35.9045C58.1984 38.0981 58.0993 40.302 58.0917 42.5016C58.0885 43.4054 57.9526 44.3082 57.8777 45.2116C57.84 45.6632 57.8206 46.117 57.7618 46.566C57.6821 47.1777 57.5786 47.7868 57.4757 48.3953C57.3538 49.1191 57.2471 49.8468 57.0881 50.5631C56.8434 51.6642 56.5966 52.7675 56.2829 53.8503C55.8964 55.1853 55.4728 56.5123 55.0044 57.8204C54.6573 58.789 54.231 59.73 53.8063 60.6684C53.4242 61.5135 53.0302 62.3564 52.5817 63.1671C51.8072 64.569 50.9777 65.9396 50.0135 67.2229C49.5139 67.888 49.0423 68.58 48.4887 69.1982C47.5892 70.2034 46.6697 71.1968 45.6914 72.1238C44.469 73.2821 43.1254 74.3024 41.6901 75.1874C40.5808 75.8713 39.4393 76.5068 38.2115 76.9568C37.1696 77.3384 36.1208 77.7087 35.0536 78.0078C34.3136 78.2153 33.5418 78.328 32.7764 78.4207C31.8564 78.5317 30.9288 78.5765 30.2201 78.633L30.2211 78.6341ZM8.91533 41.0129C8.95629 41.8785 8.99348 42.9893 9.06732 44.0975C9.1196 44.8828 9.18751 45.6697 9.30932 46.4464C9.55348 48.0018 9.87525 49.5422 10.2919 51.0638C10.7446 52.7163 11.3149 54.3262 12.0112 55.8882C12.8407 57.7476 13.8243 59.5263 15.0489 61.1588C15.6337 61.9387 16.2395 62.7068 16.8857 63.436C17.3708 63.9831 17.9087 64.493 18.4725 64.9597C19.3198 65.6609 20.1767 66.36 21.0898 66.9696C22.3887 67.8368 23.8019 68.4884 25.303 68.9487C26.534 69.326 27.7882 69.5771 29.0677 69.6429C30.2384 69.7033 31.4101 69.6596 32.5759 69.4569C33.9886 69.2117 35.3495 68.8112 36.6506 68.2216C37.6386 67.7737 38.6055 67.2714 39.4705 66.6111C40.3237 65.9595 41.1672 65.2912 41.9692 64.5781C42.803 63.8365 43.5695 63.0189 44.2453 62.1274C44.8194 61.3712 45.4144 60.6226 45.9038 59.8125C46.5554 58.7351 47.1488 57.6183 47.7018 56.4864C48.1718 55.5238 48.596 54.5321 48.9528 53.5226C49.3398 52.4285 49.6357 51.3015 49.9515 50.1831C50.1121 49.615 50.2506 49.0383 50.3595 48.4584C50.5153 47.6321 50.6667 46.8026 50.7616 45.9683C50.898 44.7701 51.0295 43.5682 51.0753 42.3647C51.1206 41.1746 51.092 39.9781 51.0305 38.788C50.9707 37.6297 50.8608 36.4709 50.7109 35.3208C50.5773 34.2929 50.4026 33.2662 50.1676 32.2567C49.8858 31.0467 49.5543 29.8453 49.1813 28.6601C48.9054 27.7837 48.561 26.9251 48.188 26.0848C47.7347 25.064 47.2679 24.0432 46.7171 23.073C46.1528 22.0781 45.5087 21.1246 44.8458 20.1911C44.3197 19.4511 43.7382 18.7456 43.1318 18.0686C42.6672 17.5501 42.1191 17.1076 41.6211 16.6177C40.8245 15.834 39.9298 15.1727 38.9952 14.5728C37.6563 13.7131 36.2313 13.0281 34.7027 12.5592C33.489 12.1873 32.2509 11.9442 30.9908 11.8731C29.9565 11.8148 28.9179 11.845 27.8814 11.9932C26.3804 12.2072 24.9354 12.6066 23.5518 13.2086C22.1591 13.8145 20.8639 14.6003 19.6642 15.5343C18.6299 16.3396 17.6603 17.2197 16.8049 18.2141C16.1172 19.014 15.4062 19.8052 14.8161 20.6751C14.0739 21.7682 13.4158 22.9221 12.7733 24.0782C11.9234 25.6084 11.2712 27.2334 10.757 28.901C10.3097 30.3519 9.92699 31.8298 9.63486 33.3195C9.34974 34.7737 9.17727 36.2532 9.02905 37.7289C8.92826 38.7346 8.9536 39.7533 8.91533 41.0134V41.0129ZM43.4822 14.8816C43.7075 14.7701 43.9775 14.7043 44.1494 14.5378C44.7541 13.953 45.3319 13.3396 45.9054 12.7236C46.1873 12.4212 46.2299 12.0391 46.0919 11.6639C45.699 10.593 44.9401 9.88422 43.8535 9.5576C43.4045 9.42286 42.9761 9.52365 42.6926 9.95321C42.2533 10.6183 41.8156 11.2845 41.3823 11.9534C41.0099 12.5285 41.1635 13.068 41.5214 13.5784C41.6491 13.7606 41.8027 13.9298 41.9682 14.0786C42.3918 14.4601 42.8392 14.8051 43.4816 14.8811L43.4822 14.8816ZM21.0219 6.40727C20.0905 6.53016 19.2411 6.89182 18.6493 7.70513C18.3895 8.06194 18.2962 8.46833 18.5307 8.89412C18.9414 9.63953 19.3419 10.3909 19.7596 11.1325C19.9288 11.4322 20.2155 11.5793 20.5513 11.6321C21.2806 11.7475 22.5585 11.1336 22.8706 10.4722C22.9864 10.227 23.0824 9.8977 23.0155 9.65408C22.7805 8.80034 22.4744 7.96654 22.1882 7.12735C22.006 6.5943 21.5678 6.44931 21.0224 6.40674L21.0219 6.40727ZM17.2668 10.7827C17.1003 10.5504 16.951 10.317 16.7769 10.1041C16.4023 9.64707 16.0611 9.55275 15.5151 9.76026C14.5962 10.109 13.9079 10.7363 13.4487 11.5944C13.191 12.0757 13.0558 12.6077 13.4875 13.0739C13.999 13.6263 14.5353 14.1572 15.0721 14.686C15.5097 15.1172 16.0158 15.2659 16.5893 14.9603C17.1272 14.6736 17.5929 14.2914 17.94 13.7897C18.507 12.971 18.3846 12.0633 17.6355 11.4289C17.1962 11.789 16.7548 12.1512 16.2988 12.5247C16.3845 12.6389 16.447 12.7246 16.5117 12.8087C16.6427 12.9796 16.7801 13.1456 16.9041 13.3207C17.0022 13.4593 17.0711 13.6113 16.8976 13.7476C16.7273 13.8813 16.6136 13.7557 16.5095 13.6436C16.3813 13.5056 16.2621 13.3596 16.1414 13.2151C15.6876 12.6713 15.2348 12.1258 14.7805 11.582C14.6258 11.3966 14.6592 11.25 14.8489 11.1077C15.0645 10.946 15.1621 11.1303 15.2645 11.2457C15.4645 11.4715 15.6439 11.7146 15.8337 11.9523C16.3193 11.5561 16.7828 11.1783 17.2673 10.7822L17.2668 10.7827ZM35.1889 7.47553C35.2331 7.79892 34.8774 8.06032 35.2433 8.31526C35.1754 8.57181 35.1221 8.83699 35.0304 9.08815C34.9959 9.18247 34.8725 9.24392 34.7901 9.32045C34.7556 9.21481 34.6753 9.10001 34.6941 9.00461C34.8041 8.44192 34.9356 7.88354 35.0628 7.32462C35.1404 6.98398 35.2169 6.64227 35.3059 6.30433C35.3425 6.16473 35.3668 5.97501 35.585 6.01921C35.8076 6.06395 35.7446 6.24181 35.7241 6.38895C35.7128 6.46872 35.6885 6.54633 35.6707 6.62502C35.6336 6.78887 35.5974 6.95326 35.5576 7.13112C36.1229 7.3133 36.663 7.48739 37.2133 7.66471C37.2677 7.50625 37.3119 7.38067 37.3551 7.25401C37.5453 6.69239 37.4332 6.21109 36.9686 5.82787C36.2744 5.25494 35.4697 5.0318 34.5847 5.12397C34.0085 5.18433 33.6253 5.49586 33.5315 6.09844C33.4049 6.91337 33.2696 7.72723 33.1548 8.54432C33.074 9.11887 33.3499 9.53227 33.8172 9.82817C34.2872 10.1257 34.7863 10.2162 35.2746 9.97585C35.3463 10.1014 35.3802 10.2529 35.4659 10.2928C35.7063 10.4043 35.9683 10.4696 36.2469 10.5617C36.524 9.73762 36.7972 8.92646 37.0823 8.07918C36.463 7.88192 35.8599 7.69004 35.1884 7.47661L35.1889 7.47553ZM31.6451 5.55353C31.6645 5.21128 31.6812 4.90568 31.7012 4.55373H28.6177C28.6958 6.19761 28.7718 7.807 28.85 9.44496H31.4441C31.4678 9.14906 31.4921 8.84184 31.5179 8.51306C31.1288 8.48611 30.7666 8.46078 30.4222 8.43653V7.36666C30.759 7.38768 31.0673 7.40654 31.3961 7.42702C31.4144 7.08639 31.4306 6.78618 31.4479 6.46063C31.1013 6.43476 30.7838 6.41105 30.4739 6.38733V5.49209C30.8685 5.51257 31.2333 5.5309 31.6451 5.55192V5.55353ZM27.3807 8.59445C27.0158 8.65158 26.7005 8.70117 26.3637 8.75345C26.1432 7.45559 25.926 6.17875 25.7045 4.87496C25.0723 5.02102 24.4821 5.15792 23.8666 5.30021C24.2617 6.90475 24.6481 8.47372 25.0324 10.0335C25.8737 9.8632 26.6779 9.70043 27.502 9.53389C27.4621 9.22505 27.4233 8.92592 27.3807 8.59391V8.59445ZM41.5381 7.72238C40.9576 7.40924 40.4089 7.11334 39.8365 6.8045C39.1725 8.31364 38.5257 9.78397 37.8773 11.2581C38.3505 11.5125 38.7957 11.7518 39.2523 11.9976C40.0155 10.5703 40.7657 9.1663 41.5381 7.72238ZM14.0006 68.4739C14.3563 68.1327 14.6948 67.8082 15.0333 67.4837C15.0467 67.4945 15.0602 67.5058 15.0737 67.5166C14.8118 67.9262 14.5498 68.3359 14.2776 68.7617C14.5132 68.9848 14.7368 69.1966 14.9864 69.4327C15.4914 68.6231 15.9732 67.8508 16.4562 67.0763C16.1419 66.7761 15.8536 66.5001 15.5609 66.2204C15.2769 66.4678 15.0144 66.6958 14.7525 66.9243C14.8274 66.5831 14.9573 66.2894 15.0753 65.9908C15.105 65.9153 15.1384 65.7914 15.1012 65.7472C14.8392 65.434 14.559 65.136 14.2695 64.8169C13.6885 65.5294 13.1296 66.215 12.5653 66.907C12.7927 67.1679 13.0019 67.4078 13.2272 67.6659C13.5425 67.2687 13.8287 66.9081 14.1149 66.5475C13.965 66.9771 13.7726 67.3786 13.5953 67.7867C13.5629 67.861 13.5565 67.9877 13.599 68.0459C13.7079 68.1952 13.8513 68.3197 14 68.4733L14.0006 68.4739ZM54.7635 48.212C53.9114 48.3748 53.1105 48.523 52.3133 48.688C52.2395 48.7031 52.1479 48.8189 52.1328 48.9009C52.0406 49.4037 51.9743 49.9109 51.8864 50.4143C51.8595 50.5674 51.9096 50.638 52.0401 50.7081C52.5219 50.9662 52.9967 51.2379 53.4737 51.5047C53.7028 51.6329 53.9313 51.7634 54.1868 51.9078C54.2601 51.5289 54.3248 51.1958 54.3884 50.8622C54.4434 50.5729 54.3392 50.3791 54.0758 50.2806C54.0612 50.2752 54.051 50.2564 54.0246 50.2284C54.0526 50.0753 54.0822 49.9104 54.1157 49.7266C54.2256 49.7336 54.3253 49.7568 54.4175 49.74C54.4773 49.7293 54.5673 49.6662 54.5749 49.6161C54.6449 49.158 54.7005 48.6977 54.763 48.2126L54.7635 48.212ZM6.27272 55.132C6.33362 55.1255 6.35572 55.1298 6.36704 55.1207C7.01327 54.6081 7.66113 54.0971 8.30089 53.577C8.35156 53.5361 8.38174 53.4207 8.36503 53.3539C8.24322 52.8672 8.10147 52.3853 7.97858 51.8992C7.9387 51.7418 7.85192 51.7111 7.70802 51.7095C7.19707 51.7046 6.68558 51.6917 6.17462 51.6761C5.90837 51.668 5.64265 51.6491 5.32735 51.6329C5.4621 52.1557 5.58552 52.6349 5.71056 53.12C5.81081 53.1006 5.87118 53.0871 5.93208 53.0774C6.00053 53.0661 6.06898 53.0575 6.13312 53.0483C6.31045 53.4746 6.30829 53.4714 5.99461 53.687C5.95095 53.7172 5.91106 53.8066 5.92346 53.8546C6.0318 54.2793 6.15253 54.7003 6.27218 55.132H6.27272ZM6.97177 57.1332C7.27145 56.9936 7.55171 56.8632 7.83144 56.7328C7.67298 57.0389 7.48111 57.3041 7.30055 57.5757C7.25528 57.6442 7.20299 57.7503 7.22563 57.8134C7.3399 58.1309 7.47733 58.4402 7.60076 58.7372C7.64657 58.7399 7.65735 58.7437 7.66436 58.7399C8.34186 58.3551 9.01989 57.9719 9.69254 57.58C9.7335 57.5563 9.76638 57.4512 9.74859 57.4043C9.64726 57.1294 9.52976 56.8605 9.40957 56.57C9.1072 56.7257 8.8334 56.867 8.5596 57.0082C8.69758 56.6923 8.88137 56.4228 9.05277 56.1458C9.10559 56.0601 9.17296 55.941 9.1514 55.8591C9.07756 55.5772 8.96707 55.305 8.86359 55.0091C8.08099 55.3664 7.32858 55.7098 6.57023 56.0558C6.68665 56.3862 6.79014 56.6821 6.89524 56.9774C6.90979 57.0189 6.93405 57.0567 6.97177 57.1332ZM6.82517 50.3227C7.23695 50.2629 7.37601 50.1637 7.39757 49.8548C7.45092 49.082 7.33073 48.3344 6.98471 47.6348C6.86991 47.4025 6.65863 47.3039 6.40261 47.3378C6.14067 47.3723 5.9779 47.5389 5.93532 47.7922C5.86256 48.225 5.81135 48.6615 5.75045 49.096C5.72619 49.2674 5.67176 49.4188 5.46102 49.4188C5.24273 49.4188 5.25135 49.2296 5.21417 49.0917C5.17212 48.9337 5.23303 48.8308 5.40766 48.8119C5.49228 48.8028 5.57582 48.7844 5.67607 48.7672C5.60439 48.3064 5.53701 47.8752 5.47126 47.4494C5.00019 47.3933 4.76897 47.5572 4.72801 48.0196C4.65363 48.8497 4.80508 49.6457 5.17428 50.3954C5.2934 50.6369 5.46533 50.8002 5.77039 50.7469C6.07006 50.6946 6.25655 50.5512 6.31584 50.2337C6.38321 49.8732 6.41124 49.5056 6.45974 49.1418C6.47645 49.0178 6.484 48.8863 6.5352 48.7769C6.56377 48.716 6.68126 48.6502 6.74271 48.6626C6.80685 48.6761 6.88608 48.7774 6.89416 48.848C6.90063 48.9062 6.82248 48.986 6.76427 49.0361C6.72223 49.0723 6.65162 49.0755 6.56538 49.1024C6.6527 49.5131 6.73732 49.912 6.82463 50.3243L6.82517 50.3227ZM51.7345 59.5274C51.749 59.2385 51.6757 58.9862 51.4202 58.8245C51.0871 58.6127 50.7535 58.4003 50.4086 58.209C50.1046 58.0403 49.8696 58.0861 49.647 58.3572C49.2913 58.7906 49.0751 59.287 49.0342 59.8524C49.011 60.1698 49.1064 60.4345 49.3705 60.6301C49.6518 60.8381 49.924 61.0591 50.2086 61.2629C50.5681 61.52 50.836 61.4903 51.1146 61.1351C51.4827 60.6657 51.6951 60.1272 51.7345 59.5279V59.5274ZM38.793 73.7601C39.3293 73.4761 39.8516 73.2206 40.3518 72.9269C40.6746 72.7372 40.7382 72.4876 40.6051 72.14C40.4229 71.6624 40.2375 71.186 40.0349 70.7165C39.8279 70.2363 39.6074 70.1463 39.1213 70.3479C38.7408 70.5058 38.37 70.6896 38.0056 70.8815C37.9522 70.9095 37.9183 71.0609 37.9409 71.1348C38.1818 71.9239 38.4352 72.7091 38.6869 73.495C38.7106 73.5688 38.7445 73.6394 38.7936 73.7596L38.793 73.7601ZM11.7633 61.2553C10.9737 61.6466 10.2137 62.0234 9.42736 62.4125C9.65696 62.7936 9.87148 63.1498 10.0941 63.5185C10.2369 63.4166 10.3442 63.3406 10.4487 63.2662C10.6266 63.4556 10.611 63.7032 10.4018 64.009C10.6282 64.3383 10.8583 64.6735 11.1041 65.0309C11.6 64.2224 12.0705 63.4597 12.534 62.6928C12.5637 62.6443 12.5664 62.5483 12.5378 62.5009C12.2883 62.087 12.029 61.679 11.7633 61.2553ZM19.2244 72.5685C19.3936 72.1508 19.5488 71.767 19.7051 71.3816C19.9126 71.4609 19.9283 71.5816 19.8657 71.739C19.7601 72.0063 19.6518 72.2731 19.565 72.5464C19.5434 72.6148 19.5709 72.7496 19.6221 72.7824C19.8458 72.9253 20.0867 73.0417 20.3702 73.1942C20.443 72.6288 20.969 72.1756 20.5583 71.6096C20.6613 71.5757 20.789 71.567 20.8682 71.5008C21.1873 71.2318 21.2132 70.5414 20.8785 70.2854C20.4478 69.956 19.9719 69.6855 19.4885 69.3713C19.1015 70.253 18.7334 71.0884 18.3722 71.9276C18.3555 71.9659 18.3873 72.0575 18.4245 72.0818C18.6784 72.2451 18.9398 72.3976 19.2249 72.5685H19.2244ZM29.0855 74.0092C29.1637 73.9461 29.2671 73.8949 29.3243 73.8119C29.6229 73.3807 29.3361 72.659 28.8225 72.5668C28.4166 72.4946 28.0049 72.4515 27.5942 72.4143C27.5413 72.4095 27.4325 72.5119 27.4265 72.5722C27.3392 73.4384 27.2621 74.3051 27.1942 75.1728C27.1888 75.2423 27.2595 75.3722 27.3123 75.3819C27.5823 75.4321 27.8583 75.4525 28.1509 75.4854C28.1843 75.023 28.2161 74.5912 28.249 74.1353C28.3363 74.1671 28.4258 74.1827 28.4274 74.2032C28.4549 74.6333 28.4722 75.0645 28.4932 75.5226C28.7842 75.5393 29.0731 75.556 29.4164 75.576C29.2693 75.0208 29.6531 74.4258 29.0861 74.0086L29.0855 74.0092ZM51.6703 55.9566C51.7862 55.5761 51.8929 55.2355 51.991 54.8927C52.0029 54.8512 51.9867 54.7817 51.9571 54.7504C51.7469 54.5289 51.217 54.5418 51.0305 54.7881C50.6231 55.3276 50.4172 55.9399 50.4361 56.6196C50.4431 56.867 50.5417 57.0772 50.7627 57.2044C51.1125 57.4054 51.4612 57.6102 51.8228 57.7881C52.1182 57.9336 52.3467 57.8824 52.5343 57.6145C52.952 57.0179 53.1875 56.3582 53.1062 55.6171C53.0663 55.2549 52.7898 55.0123 52.3899 54.9741C52.3225 55.1929 52.2535 55.4139 52.1856 55.6359C52.0965 55.9284 52.1771 56.1559 52.4276 56.3183C52.4718 56.3474 52.5327 56.3803 52.5445 56.4228C52.5618 56.4848 52.5596 56.5673 52.53 56.6212C52.5095 56.6589 52.4136 56.6945 52.3769 56.6772C51.9317 56.466 51.4881 56.2493 51.0527 56.0181C51.0079 55.9944 50.9966 55.8607 51.0144 55.7895C51.0219 55.7583 51.1524 55.7259 51.21 55.7453C51.3523 55.7928 51.4849 55.8693 51.6692 55.9566H51.6703ZM17.7018 71.6123C17.7341 71.5735 17.7513 71.5617 17.7556 71.546C17.9879 70.6432 18.2202 69.741 18.4461 68.8366C18.4601 68.78 18.4402 68.6824 18.3992 68.6501C18.058 68.3785 17.7082 68.1176 17.3563 67.8497C16.7418 68.5423 16.1436 69.2166 15.5227 69.9167C15.824 70.1662 16.1145 70.4072 16.4174 70.6578C16.523 70.5015 16.6055 70.3791 16.6847 70.2616C16.958 70.3727 17.0544 70.5236 16.8922 70.7839C16.8566 70.8416 16.8523 70.9817 16.8911 71.0124C17.1531 71.2232 17.4306 71.4151 17.7018 71.6118V71.6123ZM23.7706 72.6914C23.8838 72.2666 23.9442 71.8974 23.6451 71.5784C23.3508 71.2647 22.9854 71.0836 22.5553 71.0539C22.1807 71.0281 21.978 71.159 21.8589 71.5126C21.7042 71.9718 21.5673 72.4364 21.4239 72.8994C21.3469 73.1489 21.3911 73.378 21.5463 73.5871C21.8373 73.979 22.2082 74.1811 22.5908 74.1029C22.897 74.256 23.1185 74.367 23.3756 74.4959C23.4925 73.9763 23.5993 73.5241 23.6909 73.0686C23.7011 73.0169 23.6413 72.9145 23.5901 72.8935C23.2937 72.7701 22.9902 72.6644 22.6523 72.5388C22.6205 72.6951 22.5251 72.9026 22.5779 72.9528C22.7924 73.1554 22.5973 73.3171 22.566 73.489C22.5574 73.5354 22.4685 73.5672 22.4162 73.606C22.3839 73.5408 22.3116 73.4648 22.3251 73.4109C22.4636 72.8633 22.6135 72.3184 22.7687 71.7751C22.7811 71.7309 22.856 71.705 22.9018 71.6705C22.9347 71.726 22.9983 71.7837 22.9951 71.8376C22.9875 71.9616 22.9352 72.0823 22.9261 72.2063C22.9212 72.271 22.9509 72.3809 22.9956 72.3998C23.2398 72.5054 23.4931 72.59 23.7706 72.6914ZM36.87 74.5023C36.476 73.6119 36.1057 72.7673 35.7236 71.9276C35.6966 71.8678 35.5727 71.8037 35.5096 71.8166C35.1948 71.8818 34.8806 71.9605 34.5761 72.0629C34.4995 72.0888 34.4112 72.2197 34.409 72.3044C34.3944 72.9678 34.3993 73.6313 34.3982 74.2948C34.3982 74.5702 34.3982 74.8462 34.3982 75.1674C34.7502 75.0844 35.0763 75.0073 35.4234 74.9254C35.4007 74.7621 35.3355 74.6063 35.3765 74.4872C35.4077 74.3951 35.5721 74.3487 35.6993 74.2684C35.7688 74.4845 35.8173 74.6355 35.8745 74.8139C36.2113 74.7082 36.532 74.608 36.8694 74.5023H36.87ZM26.4849 75.2547C26.4973 75.2116 26.5124 75.1863 26.5108 75.162C26.4537 74.2301 26.3987 73.2982 26.3281 72.368C26.3227 72.2936 26.2187 72.1896 26.14 72.1653C25.8489 72.0758 25.5466 72.0236 25.2539 71.9384C25.0874 71.8899 25.0184 71.9303 24.9607 72.0952C24.7839 72.6035 24.5877 73.1053 24.3986 73.6098C24.2697 73.952 24.1398 74.2943 23.9981 74.6694C24.356 74.7659 24.6864 74.8554 25.0313 74.9486C25.0782 74.7529 25.1154 74.5999 25.1515 74.4495C25.4302 74.4387 25.5617 74.5384 25.4911 74.8139C25.4404 75.0117 25.532 75.0876 25.7191 75.1141C25.9745 75.1507 26.2278 75.2068 26.4844 75.2553L26.4849 75.2547ZM49.1711 61.7647C49.0444 61.6649 48.9512 61.5803 48.8477 61.5119C48.5308 61.3033 48.3502 61.3017 48.0737 61.5544C47.6727 61.9215 47.3924 62.3742 47.3337 62.9202C47.3127 63.1164 47.3623 63.3746 47.4819 63.5201C47.7821 63.885 48.1287 64.2154 48.4801 64.5334C48.7345 64.7635 48.9107 64.7565 49.1722 64.5307C49.6513 64.1173 49.9526 63.5961 50.0254 62.9617C50.0717 62.5569 49.8755 62.2546 49.4691 62.0692C49.3829 62.2222 49.2956 62.3769 49.2088 62.5322C49.1177 62.6938 49.0272 62.8561 48.9404 63.0108C49.2638 63.3446 49.3588 63.5765 49.2255 63.7066C49.1193 63.6166 49.0078 63.5287 48.9037 63.4328C48.6138 63.1649 48.3216 62.8992 48.0451 62.6184C47.9977 62.5704 48.0225 62.4508 48.0144 62.3645C48.0893 62.3775 48.1799 62.3688 48.2354 62.4082C48.3637 62.4993 48.4758 62.6141 48.6181 62.7407C48.8073 62.4071 48.9819 62.0977 49.1711 61.7647ZM46.4525 65.2567C46.6287 65.0325 46.7969 64.825 46.9559 64.6099C46.9866 64.5684 47.0044 64.4892 46.9861 64.445C46.8923 64.2192 46.564 64.0887 46.3522 64.2116C45.8504 64.5021 45.5039 64.9301 45.354 65.4922C45.2656 65.8242 45.4408 66.0862 45.6796 66.2969C45.8984 66.4899 46.1312 66.4047 46.3581 66.2958C46.5522 66.2026 46.7494 66.1158 46.9419 66.021C47.1154 65.9353 47.2615 66.0005 47.3267 66.1471C47.3693 66.2425 47.3515 66.409 47.2917 66.4963C47.1946 66.6381 47.0939 66.5244 47.0141 66.4333C46.9521 66.3632 46.8874 66.2953 46.8093 66.2107C46.5829 66.4845 46.3797 66.7297 46.183 66.9679C46.5182 67.4654 46.7295 67.5619 47.0626 67.3512C47.6 67.0116 47.9476 66.5238 48.1287 65.9153C48.2236 65.5952 48.0425 65.3817 47.842 65.1823C47.6533 64.9947 47.4275 64.9403 47.1758 65.054C46.9877 65.1386 46.8012 65.2265 46.6125 65.31C46.5225 65.3499 46.4255 65.4205 46.3398 65.4108C46.2417 65.3995 46.1415 65.3251 46.0644 65.2535C46.0396 65.2308 46.0876 65.13 46.1021 65.0654C46.1868 65.1058 46.2719 65.1451 46.3555 65.1866C46.3786 65.1985 46.3986 65.2173 46.453 65.2567H46.4525ZM45.8747 67.867C45.6931 68.103 45.547 68.2922 45.4004 68.4825C45.0037 68.0437 44.9988 68.0394 45.3497 67.6611C45.4505 67.5522 45.4575 67.4692 45.3621 67.3641C45.2931 67.2876 45.2306 67.2056 45.139 67.0941C45.0565 67.1911 44.9913 67.2536 44.9423 67.328C44.8878 67.411 44.8485 67.5037 44.7967 67.6034C44.5409 67.2926 44.5166 67.0269 44.724 66.8063C44.7547 66.7734 44.801 66.7459 44.8129 66.7076C44.8307 66.6489 44.8501 66.568 44.8237 66.5233C44.7536 66.4031 44.6593 66.2975 44.5542 66.1579C44.2039 66.5136 43.8853 66.8515 43.549 67.1717C43.4213 67.2935 43.4331 67.3754 43.5204 67.5107C43.9376 68.1585 44.3429 68.8134 44.7541 69.465C44.7994 69.5367 44.8539 69.6019 44.9385 69.7178C45.3815 69.2462 45.796 68.8048 46.2245 68.3488C46.1393 68.2318 46.0412 68.0971 45.8741 67.867H45.8747ZM41.7763 68.6749C41.3742 68.946 41.0153 69.1993 40.6444 69.4332C40.5075 69.5195 40.4871 69.5949 40.5523 69.7367C40.8029 70.2832 41.0433 70.834 41.288 71.3827C41.4066 71.649 41.5257 71.9152 41.662 72.2214C42.1805 71.8586 42.6602 71.5223 43.1507 71.179C43.0429 70.9893 42.9572 70.8389 42.8661 70.6783C42.6494 70.8297 42.4624 70.9602 42.2571 71.1035C42.1611 70.8976 42.0797 70.7235 42.0027 70.557C42.5179 70.1123 42.5276 70.073 42.2091 69.7345C42.1369 69.7814 42.062 69.8294 41.9881 69.8784C41.9159 69.9264 41.8453 69.976 41.7741 70.025C41.4782 69.6073 41.4799 69.6019 41.8507 69.3233C41.9132 69.2764 41.9687 69.2214 42.0328 69.1654C41.9461 68.9999 41.8685 68.8511 41.7763 68.6743V68.6749ZM10.9263 60.8295C11.0777 60.7045 11.1984 60.6053 11.3095 60.5131C10.9122 59.7629 10.5296 59.0396 10.1458 58.3147C9.63594 58.6224 9.70763 58.5049 9.91136 58.9593C9.94747 59.0396 9.98682 59.1177 10.0321 59.2126C9.47102 59.5942 8.9191 59.9699 8.35479 60.3541C8.5526 60.7336 8.73693 61.0855 8.9315 61.4585C9.49365 61.0403 10.0213 60.6473 10.5646 60.2431C10.6907 60.4479 10.798 60.6209 10.9263 60.8295ZM32.5867 75.4498C32.8621 75.4143 33.1004 75.3765 33.3397 75.3544C33.5148 75.3377 33.5596 75.2617 33.5348 75.0893C33.4577 74.5568 33.3979 74.0221 33.3305 73.4885C33.2874 73.1471 33.4243 72.9334 33.7412 72.8471C33.7563 72.8428 33.7682 72.8256 33.8005 72.7981C33.7903 72.7237 33.7676 72.6364 33.7676 72.5496C33.7676 72.2957 33.6614 72.2386 33.414 72.2909C33.0114 72.3761 32.6007 72.4273 32.1916 72.4785C31.7243 72.5372 31.7227 72.5307 31.7955 73.0067C31.8003 73.0395 31.823 73.0697 31.8408 73.1074C32.0046 73.0961 32.1625 73.0853 32.3479 73.0724C32.4272 73.8636 32.5048 74.636 32.5862 75.4498H32.5867ZM51.3049 53.2612C52.0993 53.5485 52.8776 53.8303 53.6812 54.1214C53.7917 53.6525 53.8925 53.2235 53.996 52.7842C53.1719 52.5368 52.3947 52.3034 51.5922 52.062C51.4941 52.4711 51.4035 52.8505 51.3054 53.2612H51.3049ZM31.2571 75.5986C31.2091 74.5368 31.1654 73.5586 31.1218 72.5884C30.8469 72.5884 30.6151 72.5776 30.385 72.596C30.3295 72.6003 30.2362 72.7011 30.2368 72.7571C30.2427 73.6437 30.2578 74.5309 30.2837 75.417C30.2853 75.479 30.3855 75.5857 30.4459 75.59C30.7019 75.6094 30.9606 75.5981 31.2571 75.5981V75.5986Z" fill="#010029"/>
<path d="M8.91528 41.0129C8.95355 39.7528 8.92822 38.7341 9.02901 37.7284C9.17723 36.2527 9.3497 34.7732 9.63482 33.319C9.92694 31.8293 10.3091 30.3514 10.757 28.9004C11.2712 27.2329 11.9239 25.6078 12.7733 24.0777C13.4158 22.921 14.0744 21.7676 14.816 20.6746C15.4062 19.8047 16.1171 19.0134 16.8048 18.2136C17.6602 17.2192 18.6298 16.339 19.6641 15.5338C20.8639 14.5997 22.1591 13.8139 23.5518 13.2081C24.9353 12.6061 26.3803 12.2067 27.8814 11.9927C28.9178 11.845 29.9565 11.8143 30.9908 11.8725C32.2509 11.9437 33.4889 12.1867 34.7027 12.5586C36.2312 13.0275 37.6563 13.7126 38.9951 14.5723C39.9302 15.1721 40.8244 15.8335 41.621 16.6171C42.119 17.1071 42.6672 17.549 43.1318 18.0681C43.7376 18.745 44.3197 19.4505 44.8457 20.1906C45.5092 21.1241 46.1528 22.0775 46.7171 23.0725C47.2674 24.0426 47.7347 25.0635 48.1879 26.0843C48.5609 26.9246 48.9058 27.7831 49.1813 28.6595C49.5542 29.8447 49.8857 31.0461 50.1676 32.2561C50.4026 33.2651 50.5772 34.2924 50.7109 35.3202C50.8607 36.4704 50.9707 37.6292 51.0305 38.7875C51.0919 39.9775 51.1205 41.1741 51.0752 42.3641C51.0294 43.5677 50.8979 44.7696 50.7616 45.9677C50.6662 46.8026 50.5147 47.6316 50.3595 48.4578C50.2501 49.0378 50.1115 49.6145 49.9515 50.1826C49.6356 51.3009 49.3397 52.4279 48.9527 53.5221C48.5954 54.5316 48.1712 55.5233 47.7018 56.4859C47.1493 57.6178 46.5554 58.7345 45.9037 59.8119C45.4138 60.622 44.8188 61.3707 44.2453 62.1268C43.5689 63.0183 42.803 63.8359 41.9692 64.5776C41.1677 65.2906 40.3237 65.959 39.4705 66.6106C38.6054 67.2709 37.6385 67.7732 36.6506 68.2211C35.3495 68.8107 33.9886 69.2112 32.5759 69.4564C31.4095 69.6591 30.2383 69.7027 29.0677 69.6424C27.7881 69.5766 26.5339 69.3254 25.3029 68.9482C23.8013 68.4879 22.3887 67.8362 21.0897 66.969C20.1767 66.3594 19.3192 65.6604 18.4724 64.9592C17.9087 64.4924 17.3713 63.9826 16.8857 63.4355C16.2395 62.7062 15.6336 61.9382 15.0489 61.1583C13.8243 59.5257 12.8407 57.7471 12.0112 55.8876C11.3148 54.3257 10.7446 52.7157 10.2918 51.0632C9.8752 49.5417 9.55343 48.0018 9.30928 46.4458C9.18747 45.6691 9.11956 44.8817 9.06727 44.0969C8.99343 42.9888 8.95625 41.878 8.91528 41.0124V41.0129ZM9.61434 40.7537C9.61326 42.4919 9.68926 44.2241 9.96306 45.9408C10.1522 47.1271 10.3603 48.3123 10.6104 49.4867C10.91 50.8956 11.3455 52.2673 11.8446 53.6202C12.3534 54.9999 12.942 56.3431 13.6448 57.6318C14.4845 59.1722 15.4396 60.6382 16.5655 61.9921C17.4964 63.1116 18.508 64.1469 19.6307 65.0691C20.9097 66.1201 22.304 66.9884 23.8229 67.66C25.3417 68.3316 26.9252 68.7665 28.5724 68.9093C29.7209 69.0091 30.8781 68.9956 32.0321 68.8398C33.9918 68.5752 35.8265 67.9451 37.5507 66.996C39.8613 65.724 41.7962 64.002 43.4719 61.9743C44.7552 60.4215 45.8358 58.7361 46.7311 56.9381C47.2329 55.9308 47.6587 54.8841 48.0818 53.8401C48.7716 52.138 49.2686 50.3728 49.6135 48.5721C49.8528 47.3227 50.0307 46.0594 50.1881 44.7965C50.2991 43.9035 50.3762 43.0001 50.3843 42.1011C50.3967 40.7494 50.3519 39.396 50.3002 38.0448C50.2711 37.287 50.2226 36.5248 50.1067 35.7767C49.9213 34.5807 49.6901 33.3912 49.447 32.2055C49.0503 30.2722 48.4208 28.4084 47.6662 26.5882C47.131 25.2968 46.5052 24.0475 45.7857 22.8472C44.9799 21.5035 44.1154 20.1976 43.0391 19.0555C42.1945 18.1592 41.3391 17.2607 40.4008 16.4668C38.6777 15.0083 36.7293 13.9212 34.5647 13.2383C33.3827 12.8653 32.1733 12.6238 30.9406 12.5683C30.0761 12.529 29.2035 12.5759 28.3395 12.6459C26.6638 12.7823 25.0744 13.2712 23.5534 13.9681C21.7241 14.8067 20.0743 15.9321 18.6309 17.3286C17.733 18.1974 16.8825 19.1272 16.0982 20.1C15.0025 21.4599 14.1024 22.9588 13.3096 24.5153C12.5938 25.9204 11.9691 27.3698 11.5008 28.8751C11.1111 30.1277 10.7694 31.397 10.4632 32.6728C10.0574 34.3652 9.83747 36.091 9.71513 37.8254C9.64614 38.7988 9.6456 39.777 9.6138 40.7531L9.61434 40.7537Z" fill="white"/>
<path d="M43.4822 14.8816C42.8398 14.8051 42.3919 14.4607 41.9688 14.0791C41.8033 13.9303 41.6497 13.7611 41.522 13.5789C41.1635 13.0685 41.0099 12.5284 41.3829 11.9539C41.8162 11.285 42.2539 10.6188 42.6932 9.95375C42.9767 9.52472 43.4051 9.42339 43.8541 9.55814C44.9407 9.88476 45.7001 10.593 46.0925 11.6645C46.2299 12.0396 46.1874 12.4212 45.906 12.7241C45.3325 13.3401 44.7542 13.9535 44.15 14.5383C43.9781 14.7048 43.7081 14.7701 43.4828 14.8822L43.4822 14.8816ZM42.6748 13.5929C42.7735 13.5051 42.8705 13.4382 42.9422 13.3504C43.4973 12.6713 44.0498 11.9895 44.5984 11.305C44.6933 11.1864 44.7989 11.0436 44.6324 10.9067C44.4535 10.7601 44.337 10.897 44.2341 11.0279C43.9123 11.4354 43.5911 11.8434 43.2742 12.2546C43.023 12.5807 42.7745 12.9095 42.5347 13.2437C42.4959 13.2981 42.4813 13.3973 42.5024 13.4598C42.5201 13.5126 42.6058 13.5428 42.6748 13.5929Z" fill="white"/>
<path d="M21.0218 6.40727C21.5673 6.44985 22.0055 6.59484 22.1876 7.12789C22.4738 7.96708 22.78 8.80087 23.015 9.65462C23.0818 9.89823 22.9859 10.2276 22.87 10.4728C22.5579 11.1336 21.28 11.7475 20.5508 11.6327C20.215 11.5798 19.9277 11.4327 19.759 11.133C19.3413 10.3914 18.9408 9.64006 18.5301 8.89466C18.2957 8.4694 18.3889 8.06247 18.6487 7.70567C19.2405 6.89181 20.0899 6.53016 21.0213 6.40781L21.0218 6.40727ZM21.6244 10.4561C21.5872 10.3397 21.5667 10.2518 21.5317 10.1699C21.2412 9.48699 20.9491 8.80465 20.6553 8.12338C20.5777 7.94282 20.5071 7.75687 20.4047 7.59087C20.3691 7.5332 20.2274 7.48631 20.1686 7.51272C20.1039 7.54128 20.0517 7.65716 20.0441 7.73963C20.0371 7.82155 20.0856 7.91156 20.1217 7.99295C20.3551 8.51629 20.5896 9.03857 20.8278 9.55922C20.9728 9.87668 21.1183 10.1941 21.2795 10.5035C21.3091 10.5606 21.4185 10.6097 21.4859 10.6038C21.5382 10.5994 21.5829 10.504 21.6244 10.4561Z" fill="white"/>
<path d="M17.2665 10.7827C16.7815 11.1783 16.3185 11.5561 15.8329 11.9528C15.6431 11.7151 15.4637 11.472 15.2637 11.2462C15.1613 11.1309 15.0632 10.9465 14.8481 11.1082C14.6584 11.2505 14.625 11.3971 14.7797 11.5825C15.234 12.1264 15.6862 12.6718 16.1406 13.2156C16.2613 13.3601 16.381 13.5061 16.5087 13.6441C16.6133 13.7568 16.7265 13.8818 16.8968 13.7481C17.0703 13.6123 17.0014 13.4598 16.9033 13.3213C16.7788 13.1461 16.6419 12.9796 16.5109 12.8092C16.4462 12.7252 16.3837 12.64 16.298 12.5252C16.754 12.1512 17.1954 11.7895 17.6347 11.4295C18.3838 12.0638 18.5062 12.9715 17.9392 13.7902C17.5921 14.2914 17.1264 14.6741 16.5885 14.9608C16.015 15.2664 15.5095 15.1182 15.0713 14.6865C14.5345 14.1578 13.9987 13.6274 13.4867 13.0744C13.055 12.6082 13.1902 12.0762 13.4479 11.5949C13.9071 10.7369 14.5959 10.11 15.5143 9.76079C16.0603 9.55328 16.4015 9.6476 16.7761 10.1047C16.9507 10.3176 17.1 10.5515 17.266 10.7832L17.2665 10.7827Z" fill="white"/>
<path d="M35.1887 7.47552C35.8608 7.6895 36.4634 7.88138 37.0826 8.0781C36.7975 8.92538 36.5243 9.73708 36.2472 10.5606C35.9686 10.469 35.7066 10.4033 35.4662 10.2917C35.3805 10.2518 35.3466 10.0998 35.2749 9.97477C34.7866 10.2152 34.287 10.1246 33.8175 9.82709C33.3502 9.53119 33.0743 9.11779 33.1551 8.54324C33.2699 7.72669 33.4046 6.91283 33.5318 6.09736C33.6256 5.49478 34.0094 5.18325 34.585 5.12288C35.4695 5.03018 36.2747 5.25332 36.9689 5.82679C37.4335 6.21054 37.5462 6.69131 37.3554 7.25293C37.3128 7.37905 37.2686 7.50517 37.2136 7.66363C36.6633 7.4863 36.1233 7.31221 35.5579 7.13004C35.5978 6.95218 35.6339 6.78833 35.6711 6.62394C35.6888 6.54525 35.7131 6.46764 35.7244 6.38787C35.7449 6.24073 35.8085 6.06286 35.5854 6.01813C35.3671 5.97447 35.3428 6.16365 35.3062 6.30325C35.2172 6.64119 35.1407 6.98236 35.0631 7.32353C34.9359 7.88245 34.8044 8.44083 34.6944 9.00353C34.6756 9.09893 34.7559 9.21373 34.7904 9.31937C34.8734 9.24283 34.9963 9.18139 35.0307 9.08707C35.1224 8.83591 35.1757 8.57127 35.2436 8.31417C34.8782 8.05924 35.2334 7.79783 35.1892 7.47445L35.1887 7.47552Z" fill="white"/>
<path d="M31.6451 5.55353C31.2339 5.53251 30.8684 5.51365 30.4739 5.4937V6.38895C30.7838 6.41212 31.1013 6.43584 31.4478 6.46225C31.4306 6.78725 31.4144 7.088 31.3961 7.42864C31.0673 7.40815 30.759 7.38875 30.4222 7.36827V8.43814C30.7666 8.4624 31.1288 8.48719 31.5179 8.51468C31.492 8.84345 31.4678 9.15013 31.4441 9.44657H28.85C28.7724 7.80862 28.6958 6.19869 28.6177 4.55534H31.7012C31.6812 4.90676 31.6645 5.2129 31.6451 5.55515V5.55353Z" fill="white"/>
<path d="M27.3806 8.59444C27.4232 8.92645 27.462 9.22558 27.5019 9.53442C26.6778 9.70096 25.8741 9.86373 25.0323 10.034C24.648 8.47425 24.2615 6.90528 23.8665 5.30074C24.482 5.15845 25.0721 5.02209 25.7044 4.87549C25.9259 6.17928 26.1431 7.45612 26.3635 8.75398C26.6999 8.70116 27.0157 8.65211 27.3806 8.59498V8.59444Z" fill="white"/>
<path d="M41.5379 7.72237C40.7661 9.16629 40.0153 10.5703 39.2521 11.9975C38.7956 11.7518 38.3504 11.5125 37.8772 11.2581C38.5256 9.78396 39.1724 8.31363 39.8364 6.80449C40.4088 7.11332 40.9575 7.40922 41.5379 7.72237Z" fill="white"/>
<path d="M14.0007 68.4738C13.8519 68.3197 13.7086 68.1957 13.5997 68.0464C13.5571 67.9882 13.5636 67.8616 13.5959 67.7872C13.7732 67.3792 13.9651 66.9776 14.1155 66.5481C13.8293 66.9086 13.5431 67.2692 13.2278 67.6665C13.0025 67.4083 12.7939 67.1684 12.5659 66.9076C13.1302 66.215 13.6891 65.5299 14.2702 64.8174C14.5596 65.1365 14.8393 65.4345 15.1018 65.7477C15.139 65.7919 15.1061 65.9158 15.0759 65.9913C14.9579 66.2899 14.828 66.5831 14.7531 66.9248C15.0156 66.6963 15.2775 66.4683 15.5616 66.2209C15.8542 66.5006 16.1426 66.7766 16.4568 67.0768C15.9739 67.8513 15.492 68.6237 14.987 69.4332C14.7375 69.1971 14.5138 68.9853 14.2783 68.7622C14.5504 68.3364 14.8124 67.9268 15.0743 67.5172C15.0608 67.5064 15.0474 67.4951 15.0339 67.4843C14.6954 67.8087 14.3569 68.1332 14.0012 68.4744L14.0007 68.4738Z" fill="white"/>
<path d="M54.7635 48.212C54.7004 48.6971 54.6454 49.1574 54.5754 49.6155C54.5678 49.6657 54.4783 49.7287 54.418 49.7395C54.3253 49.7562 54.2256 49.733 54.1161 49.726C54.0827 49.9098 54.0525 50.0747 54.0251 50.2278C54.052 50.2558 54.0617 50.2747 54.0763 50.2801C54.3389 50.3786 54.4431 50.5724 54.3889 50.8617C54.3253 51.1953 54.2606 51.5284 54.1873 51.9073C53.9318 51.7628 53.7038 51.6324 53.4742 51.5041C52.9972 51.2368 52.5224 50.9657 52.0405 50.7075C51.9101 50.6374 51.86 50.5668 51.8869 50.4138C51.9748 49.9104 52.0416 49.4032 52.1332 48.9003C52.1483 48.8184 52.24 48.7025 52.3138 48.6874C53.111 48.5225 53.9113 48.3743 54.764 48.2115L54.7635 48.212ZM52.731 49.7444L52.7267 49.7891C53.0069 49.9174 53.2872 50.0462 53.5928 50.1858C53.6181 50.0198 53.6375 49.892 53.6596 49.7444H52.731Z" fill="white"/>
<path d="M6.27247 55.132C6.15281 54.7008 6.03208 54.2793 5.92375 53.8546C5.91135 53.8066 5.95123 53.7172 5.99489 53.687C6.30858 53.4714 6.31073 53.4746 6.13341 53.0483C6.06927 53.0575 6.00082 53.0661 5.93237 53.0774C5.87147 53.0877 5.8111 53.1006 5.71085 53.12C5.58581 52.6344 5.46238 52.1558 5.32764 51.6329C5.64348 51.6497 5.90919 51.6685 6.17491 51.6761C6.68586 51.6912 7.19681 51.7041 7.7083 51.7095C7.85221 51.7111 7.93899 51.7418 7.97887 51.8992C8.10176 52.3859 8.24351 52.8672 8.36532 53.3539C8.38203 53.4207 8.35131 53.5355 8.30118 53.577C7.66141 54.0972 7.01356 54.6086 6.36733 55.1207C6.35601 55.1298 6.33337 55.1255 6.273 55.132H6.27247ZM7.45606 52.9141C7.45121 52.8931 7.44582 52.8715 7.44097 52.8505C7.1607 52.8699 6.88043 52.8888 6.56783 52.9103C6.61256 53.0612 6.64706 53.1771 6.69017 53.321C6.96074 53.1777 7.20867 53.0461 7.4566 52.9146L7.45606 52.9141Z" fill="white"/>
<path d="M6.97185 57.1332C6.93412 57.0567 6.90987 57.0189 6.89532 56.9774C6.79022 56.6821 6.68673 56.3862 6.57031 56.0558C7.32865 55.7098 8.08107 55.3664 8.86366 55.0091C8.96715 55.305 9.07764 55.5772 9.15148 55.8591C9.17304 55.9415 9.10621 56.0601 9.05285 56.1458C8.88145 56.4228 8.69766 56.6918 8.55968 57.0082C8.83348 56.867 9.10674 56.7263 9.40965 56.57C9.52984 56.8605 9.64734 57.1294 9.74867 57.4043C9.76591 57.4517 9.73358 57.5563 9.69261 57.58C9.01943 57.9719 8.34139 58.3551 7.66444 58.7399C7.65797 58.7437 7.64665 58.7399 7.60084 58.7372C7.47741 58.4402 7.33997 58.1314 7.22571 57.8134C7.20307 57.7503 7.25535 57.6436 7.30063 57.5757C7.48119 57.3035 7.67252 57.0389 7.83152 56.7327C7.55125 56.8632 7.27152 56.9936 6.97185 57.1332Z" fill="white"/>
<path d="M6.82505 50.3227C6.73774 49.9104 6.65312 49.5115 6.5658 49.1008C6.65204 49.0739 6.72265 49.0706 6.76469 49.0345C6.8229 48.9844 6.90105 48.9046 6.89458 48.8464C6.8865 48.7764 6.80727 48.6745 6.74313 48.661C6.68169 48.6481 6.56419 48.7138 6.53562 48.7753C6.48442 48.8852 6.47687 49.0167 6.46017 49.1402C6.41112 49.504 6.38309 49.8721 6.31626 50.2321C6.25697 50.5496 6.07048 50.693 5.77081 50.7452C5.46575 50.7986 5.29328 50.6347 5.1747 50.3938C4.8055 49.6441 4.65459 48.848 4.72843 48.018C4.76993 47.5556 5.00061 47.3917 5.47168 47.4478C5.53797 47.873 5.60481 48.3047 5.67649 48.7656C5.5757 48.7828 5.49216 48.8011 5.40808 48.8103C5.23291 48.8292 5.17201 48.9327 5.21459 49.09C5.25178 49.228 5.24261 49.4172 5.46144 49.4172C5.67164 49.4172 5.72662 49.2657 5.75087 49.0944C5.81177 48.6594 5.86298 48.2234 5.93574 47.7906C5.97832 47.5372 6.14109 47.3707 6.40303 47.3362C6.65959 47.3022 6.87033 47.4009 6.98513 47.6332C7.33062 48.3328 7.45135 49.0803 7.39799 49.8532C7.37643 50.1626 7.23791 50.2612 6.82559 50.3211L6.82505 50.3227Z" fill="white"/>
<path d="M51.7343 59.5274C51.6949 60.1267 51.4826 60.6651 51.1144 61.1346C50.8358 61.4898 50.5679 61.5194 50.2084 61.2623C49.9238 61.0591 49.6517 60.8381 49.3703 60.6296C49.1062 60.4339 49.0114 60.1693 49.034 59.8518C49.075 59.2864 49.2911 58.79 49.6468 58.3567C49.8694 58.0856 50.1044 58.0392 50.4084 58.2085C50.7533 58.4003 51.087 58.6127 51.42 58.824C51.675 58.9862 51.7488 59.2379 51.7343 59.5268V59.5274ZM49.7449 59.1533C49.7056 59.1899 49.6387 59.2239 49.6387 59.2579C49.6387 59.3295 49.6506 59.4325 49.698 59.4675C50.0952 59.7597 50.4995 60.0415 50.9069 60.3191C50.9436 60.3439 51.0449 60.3369 51.0659 60.3083C51.1026 60.2582 51.1279 60.1682 51.1069 60.1148C51.0794 60.0464 51.0093 59.9871 50.9452 59.9418C50.6067 59.7063 50.2645 59.4756 49.9222 59.2455C49.871 59.211 49.8128 59.1878 49.7444 59.1522L49.7449 59.1533Z" fill="white"/>
<path d="M38.7929 73.7601C38.7444 73.6399 38.7099 73.5693 38.6862 73.4955C38.4345 72.7097 38.1812 71.9244 37.9402 71.1353C37.9176 71.0609 37.9515 70.91 38.0049 70.882C38.3693 70.6896 38.7406 70.5063 39.1206 70.3484C39.6068 70.1463 39.8272 70.2368 40.0342 70.7171C40.2368 71.186 40.4222 71.663 40.6044 72.1405C40.737 72.4882 40.6739 72.7377 40.3511 72.9274C39.8514 73.2212 39.3292 73.4766 38.7924 73.7607L38.7929 73.7601ZM39.506 72.8061C39.7113 72.7555 39.7296 72.6348 39.6811 72.4892C39.6218 72.3114 39.5561 72.1362 39.4919 71.9599C39.3879 71.6748 39.2898 71.3876 39.1713 71.1089C39.1459 71.0496 39.0424 71.0237 38.9745 70.9828C38.96 71.0566 38.9174 71.138 38.9357 71.2027C38.9934 71.4086 39.0726 71.608 39.1448 71.8096C39.2645 72.1427 39.3858 72.4758 39.506 72.8061Z" fill="white"/>
<path d="M11.7632 61.2553C12.0289 61.6795 12.2881 62.087 12.5377 62.5009C12.5663 62.5483 12.5636 62.6443 12.5339 62.6928C12.0704 63.4597 11.5999 64.2229 11.104 65.0309C10.8582 64.6735 10.6281 64.3383 10.4017 64.009C10.6108 63.7032 10.6265 63.4556 10.4486 63.2662C10.344 63.3406 10.2368 63.4172 10.094 63.5185C9.87136 63.1498 9.65739 62.7936 9.42725 62.4125C10.2136 62.0228 10.973 61.6466 11.7632 61.2553ZM10.8103 62.9251C10.8825 63.0361 10.938 63.1223 11.0145 63.2398C11.221 62.9903 11.4053 62.7671 11.5896 62.5445C11.5772 62.5278 11.5654 62.5111 11.553 62.4944C11.3131 62.6335 11.0727 62.7731 10.8108 62.9251H10.8103Z" fill="white"/>
<path d="M19.2244 72.5685C18.9393 72.3971 18.6784 72.2451 18.424 72.0818C18.3868 72.058 18.355 71.9664 18.3718 71.9276C18.7329 71.089 19.101 70.253 19.488 69.3712C19.972 69.6849 20.4474 69.9555 20.878 70.2854C21.2127 70.5414 21.1868 71.2318 20.8678 71.5008C20.7891 71.567 20.6613 71.5751 20.5579 71.6096C20.9686 72.1755 20.4425 72.6288 20.3697 73.1942C20.0862 73.0417 19.8453 72.9253 19.6216 72.7824C19.5704 72.7501 19.543 72.6154 19.5645 72.5464C19.6513 72.2731 19.7596 72.0063 19.8653 71.739C19.9272 71.5816 19.9122 71.4609 19.7046 71.3816C19.5483 71.767 19.3931 72.1508 19.2239 72.5685H19.2244ZM20.1153 70.364C20.0507 70.5106 19.9968 70.6308 19.9434 70.7521C19.9326 70.7764 19.9154 70.8033 19.9186 70.827C19.9246 70.8739 19.9299 70.9461 19.9585 70.9596C20.0065 70.9823 20.0852 70.9898 20.1277 70.9639C20.2986 70.8604 20.3002 70.5187 20.1153 70.364Z" fill="white"/>
<path d="M29.0855 74.0092C29.6525 74.4269 29.2687 75.0214 29.4159 75.5765C29.0725 75.5566 28.7842 75.5399 28.4926 75.5232C28.4721 75.0645 28.4543 74.6338 28.4268 74.2037C28.4258 74.1827 28.3357 74.1676 28.2484 74.1358C28.215 74.5918 28.1837 75.023 28.1503 75.486C27.8582 75.4531 27.5823 75.4326 27.3117 75.3825C27.2594 75.3728 27.1883 75.2423 27.1936 75.1734C27.2616 74.3056 27.3386 73.4389 27.4259 72.5728C27.4319 72.5124 27.5407 72.41 27.5936 72.4149C28.0043 72.4521 28.4161 72.4952 28.8219 72.5674C29.3355 72.659 29.6223 73.3813 29.3237 73.8124C29.266 73.8954 29.1631 73.9466 29.0849 74.0097L29.0855 74.0092ZM28.2754 73.6615C28.6025 73.6653 28.5233 73.4416 28.5459 73.2983C28.568 73.157 28.5222 73.0385 28.312 73.0271C28.2996 73.2411 28.2883 73.4395 28.2754 73.6615Z" fill="white"/>
<path d="M51.6704 55.9566C51.4855 55.8688 51.3535 55.7922 51.2112 55.7453C51.1535 55.7265 51.0236 55.7583 51.0156 55.7895C50.9978 55.8612 51.0091 55.9943 51.0538 56.0181C51.4893 56.2493 51.9324 56.4654 52.3781 56.6772C52.4147 56.6945 52.5107 56.6584 52.5312 56.6212C52.5608 56.5673 52.563 56.4848 52.5457 56.4228C52.5339 56.3803 52.4729 56.3474 52.4288 56.3183C52.179 56.1555 52.0984 55.928 52.1868 55.6359C52.2541 55.4139 52.3231 55.1929 52.391 54.9741C52.7904 55.0123 53.0674 55.2549 53.1073 55.6171C53.1887 56.3587 52.9532 57.0179 52.5355 57.6145C52.3479 57.8824 52.1194 57.9336 51.824 57.7881C51.4624 57.6097 51.1136 57.4054 50.7638 57.2044C50.5423 57.0772 50.4442 56.8669 50.4372 56.6196C50.4184 55.9399 50.6237 55.3276 51.0317 54.7881C51.2182 54.5418 51.748 54.5289 51.9582 54.7504C51.9879 54.7816 52.004 54.8506 51.9922 54.8927C51.8935 55.2355 51.7874 55.5761 51.6715 55.9566H51.6704Z" fill="white"/>
<path d="M17.7015 71.6123C17.431 71.4156 17.1534 71.2237 16.8909 71.0129C16.8521 70.9817 16.8559 70.8416 16.892 70.7844C17.0542 70.5236 16.9578 70.3732 16.6845 70.2621C16.6053 70.3796 16.5228 70.502 16.4172 70.6583C16.1148 70.4077 15.8237 70.1668 15.5225 69.9172C16.1434 69.2176 16.7416 68.5428 17.3561 67.8502C17.7075 68.1176 18.0578 68.3784 18.399 68.6506C18.4399 68.6829 18.4599 68.7805 18.4459 68.8371C18.22 69.7415 17.9877 70.6437 17.7554 71.5465C17.7517 71.5622 17.7339 71.574 17.7015 71.6128V71.6123ZM17.5312 69.1298C17.5108 69.1217 17.4897 69.113 17.4693 69.105C17.293 69.333 17.1162 69.5609 16.9292 69.8029C17.0273 69.8741 17.1006 69.9274 17.1944 69.9954C17.3151 69.6849 17.4234 69.4073 17.5312 69.1298Z" fill="white"/>
<path d="M23.7705 72.6914C23.4924 72.5895 23.2391 72.5054 22.9955 72.3998C22.9507 72.3804 22.9211 72.271 22.9259 72.2063C22.9351 72.0823 22.9874 71.9616 22.9949 71.8376C22.9981 71.7843 22.9345 71.7266 22.9017 71.6705C22.8559 71.705 22.7809 71.7309 22.7685 71.7751C22.6133 72.3184 22.4635 72.8633 22.325 73.4109C22.3115 73.4648 22.3837 73.5403 22.4161 73.606C22.4683 73.5677 22.5573 73.5359 22.5659 73.4891C22.5971 73.3171 22.7923 73.1549 22.5777 72.9528C22.5249 72.9026 22.6203 72.6951 22.6521 72.5388C22.9906 72.6644 23.294 72.7701 23.5899 72.8935C23.6411 72.915 23.701 73.0169 23.6907 73.0687C23.5991 73.5241 23.4929 73.9763 23.3754 74.4959C23.1189 74.3676 22.8968 74.2566 22.5907 74.103C22.208 74.1811 21.8372 73.979 21.5461 73.5872C21.3909 73.378 21.3467 73.149 21.4238 72.8994C21.5672 72.4364 21.7041 71.9718 21.8587 71.5126C21.9779 71.1585 22.1805 71.0281 22.5551 71.054C22.9852 71.0836 23.3506 71.2647 23.6449 71.5784C23.9441 71.8975 23.8842 72.2672 23.7705 72.6914Z" fill="white"/>
<path d="M36.8697 74.5023C36.5318 74.608 36.2117 74.7088 35.8748 74.8139C35.8177 74.6355 35.7692 74.4846 35.6996 74.2684C35.5724 74.3493 35.408 74.3956 35.3768 74.4873C35.3358 74.6064 35.401 74.7621 35.4237 74.9254C35.0766 75.0074 34.751 75.0844 34.3985 75.1674C34.3985 74.8457 34.3985 74.5703 34.3985 74.2948C34.3996 73.6314 34.3942 72.9679 34.4093 72.3044C34.4109 72.2198 34.4999 72.0888 34.5764 72.0629C34.8809 71.96 35.1946 71.8818 35.5099 71.8166C35.573 71.8037 35.6964 71.8678 35.7239 71.9276C36.106 72.7674 36.4763 73.6125 36.8703 74.5023H36.8697ZM35.2636 72.8466C35.2442 72.8471 35.2248 72.8477 35.2054 72.8482C35.2259 73.1819 35.2458 73.5149 35.2674 73.8696C35.3762 73.8426 35.4501 73.8249 35.5498 73.8001C35.4506 73.4707 35.3574 73.1587 35.2636 72.8466Z" fill="white"/>
<path d="M26.4848 75.2547C26.2277 75.2062 25.975 75.1496 25.7195 75.1135C25.5319 75.0866 25.4408 75.0111 25.4915 74.8133C25.5621 74.5374 25.4311 74.4382 25.1519 74.449C25.1158 74.5993 25.0786 74.7529 25.0318 74.9481C24.6868 74.8548 24.3564 74.7659 23.9985 74.6689C24.1403 74.2937 24.2702 73.952 24.399 73.6092C24.5882 73.1053 24.7844 72.6035 24.9611 72.0947C25.0183 71.9298 25.0878 71.8899 25.2544 71.9379C25.547 72.023 25.8494 72.0753 26.1404 72.1648C26.2191 72.189 26.3231 72.293 26.3285 72.3674C26.3991 73.2982 26.4541 74.2301 26.5113 75.1615C26.5129 75.1857 26.4978 75.2111 26.4854 75.2542L26.4848 75.2547ZM25.5352 73.9741C25.5535 73.6195 25.5697 73.3047 25.5858 72.9899C25.5675 72.9856 25.5492 72.9813 25.5309 72.977C25.4371 73.2826 25.3438 73.5882 25.2441 73.9127C25.3524 73.9359 25.4268 73.9515 25.5352 73.9741Z" fill="white"/>
<path d="M49.1709 61.7646C48.9823 62.0977 48.8071 62.4071 48.6179 62.7407C48.4756 62.6146 48.3641 62.4993 48.2353 62.4082C48.1792 62.3683 48.0887 62.3775 48.0143 62.3645C48.0229 62.4508 47.9981 62.5704 48.045 62.6184C48.3215 62.8992 48.6136 63.1649 48.9036 63.4328C49.0076 63.5287 49.1192 63.6166 49.2254 63.7066C49.3587 63.5765 49.2636 63.3446 48.9402 63.0108C49.027 62.8555 49.1176 62.6938 49.2087 62.5322C49.2954 62.3769 49.3827 62.2222 49.469 62.0692C49.8754 62.2546 50.0716 62.5564 50.0252 62.9617C49.9524 63.5961 49.6512 64.1178 49.172 64.5307C48.9101 64.7565 48.7344 64.7635 48.48 64.5334C48.1285 64.2148 47.782 63.885 47.4818 63.5201C47.3621 63.3746 47.3125 63.1159 47.3336 62.9202C47.3928 62.3742 47.6726 61.9215 48.0736 61.5544C48.3495 61.3017 48.5306 61.3033 48.8475 61.5119C48.9516 61.5803 49.0448 61.6649 49.1709 61.7646Z" fill="white"/>
<path d="M46.4523 65.2567C46.3979 65.2173 46.3785 65.1985 46.3548 65.1866C46.2707 65.1446 46.1861 65.1058 46.1015 65.0653C46.0869 65.13 46.0395 65.2308 46.0637 65.2535C46.1403 65.3246 46.2405 65.399 46.3392 65.4108C46.4248 65.4211 46.5219 65.3499 46.6119 65.31C46.8005 65.2265 46.987 65.1386 47.1751 65.054C47.4268 64.9403 47.6526 64.9947 47.8413 65.1823C48.0418 65.3817 48.2229 65.5952 48.128 65.9153C47.9475 66.5244 47.5993 67.0116 47.0619 67.3512C46.7288 67.5614 46.5176 67.4649 46.1823 66.9679C46.379 66.7297 46.5822 66.4845 46.8086 66.2107C46.8868 66.2953 46.9514 66.3632 47.0134 66.4333C47.0932 66.5244 47.194 66.6381 47.291 66.4963C47.3508 66.409 47.3686 66.243 47.326 66.1471C47.2608 66.0005 47.1147 65.9353 46.9412 66.021C46.7482 66.1164 46.551 66.2031 46.3575 66.2958C46.1306 66.4047 45.8977 66.4904 45.6789 66.2969C45.4401 66.0862 45.265 65.8242 45.3534 65.4922C45.5032 64.9301 45.8503 64.5027 46.3515 64.2116C46.5639 64.0887 46.8921 64.2192 46.9854 64.445C47.0037 64.4892 46.9859 64.5684 46.9552 64.6099C46.7962 64.8244 46.628 65.0325 46.4518 65.2567H46.4523Z" fill="white"/>
<path d="M45.8746 67.867C46.0417 68.0966 46.1398 68.2319 46.2249 68.3488C45.7964 68.8048 45.3814 69.2467 44.9389 69.7178C44.8543 69.6025 44.7999 69.5367 44.7546 69.465C44.3433 68.8134 43.9375 68.1586 43.5209 67.5107C43.4341 67.3754 43.4217 67.293 43.5494 67.1717C43.8852 66.8515 44.2043 66.5136 44.5546 66.1579C44.6603 66.2969 44.754 66.4031 44.8241 66.5233C44.8505 66.5686 44.8311 66.6494 44.8133 66.7076C44.8015 66.7459 44.7551 66.7739 44.7244 66.8063C44.5171 67.0269 44.5413 67.2926 44.7972 67.6034C44.8489 67.5037 44.8883 67.411 44.9427 67.328C44.9912 67.2541 45.0564 67.1911 45.1394 67.0941C45.231 67.2051 45.2936 67.2876 45.3626 67.3641C45.458 67.4697 45.4509 67.5522 45.3502 67.6611C44.9993 68.0394 45.0041 68.0438 45.4008 68.4825C45.5474 68.2917 45.6935 68.1025 45.8751 67.867H45.8746Z" fill="white"/>
<path d="M41.7761 68.6749C41.8682 68.8517 41.9458 69.0004 42.0326 69.1659C41.9685 69.2219 41.9124 69.2769 41.8504 69.3238C41.4796 69.6024 41.478 69.6078 41.7739 70.0255C41.8451 69.977 41.9157 69.9274 41.9879 69.8789C42.0617 69.8299 42.1366 69.7819 42.2089 69.735C42.5269 70.073 42.5177 70.1123 42.0024 70.5575C42.08 70.7235 42.1609 70.8981 42.2568 71.104C42.4627 70.9607 42.6492 70.8302 42.8659 70.6788C42.957 70.8394 43.0427 70.9892 43.1505 71.1795C42.6605 71.5228 42.1803 71.8591 41.6618 72.2219C41.5254 71.9163 41.4063 71.65 41.2877 71.3832C41.0431 70.834 40.8027 70.2832 40.552 69.7372C40.4874 69.596 40.5073 69.5205 40.6442 69.4337C41.015 69.1998 41.374 68.9471 41.7761 68.6754V68.6749Z" fill="white"/>
<path d="M10.9262 60.8295C10.7979 60.6215 10.6907 60.4479 10.5645 60.2431C10.0213 60.6473 9.49306 61.0402 8.93144 61.4585C8.73687 61.0855 8.55254 60.7336 8.35474 60.3541C8.91905 59.9698 9.47096 59.5942 10.032 59.2126C9.98676 59.1177 9.94742 59.0396 9.91131 58.9593C9.70757 58.5049 9.63589 58.6219 10.1458 58.3146C10.5295 59.0396 10.9127 59.7629 11.3094 60.5131C11.1984 60.6048 11.0777 60.7045 10.9262 60.8295Z" fill="white"/>
<path d="M32.5866 75.4498C32.5052 74.636 32.4276 73.8636 32.3483 73.0724C32.1635 73.0853 32.0055 73.0961 31.8411 73.1074C31.8239 73.0692 31.8013 73.0395 31.7959 73.0066C31.7231 72.5302 31.7242 72.5372 32.192 72.4784C32.6011 72.4272 33.0113 72.376 33.4144 72.2909C33.6618 72.2386 33.768 72.2957 33.768 72.5496C33.768 72.6369 33.7901 72.7242 33.8009 72.7981C33.7685 72.8256 33.7567 72.8433 33.7416 72.8471C33.4239 72.9333 33.287 73.1471 33.3309 73.4885C33.3983 74.0221 33.4581 74.5573 33.5352 75.0893C33.5599 75.2623 33.5152 75.3383 33.34 75.3544C33.1007 75.3771 32.8625 75.4143 32.5871 75.4498H32.5866Z" fill="white"/>
<path d="M51.3047 53.2612C51.4028 52.851 51.4939 52.4711 51.5915 52.062C52.394 52.3029 53.1718 52.5363 53.9953 52.7842C53.8918 53.2229 53.791 53.6525 53.6806 54.1214C52.8769 53.8304 52.0987 53.549 51.3042 53.2612H51.3047Z" fill="white"/>
<path d="M31.2571 75.5986C30.9607 75.5986 30.702 75.6099 30.4459 75.5905C30.3856 75.5857 30.2859 75.4795 30.2837 75.4175C30.2578 74.5309 30.2427 73.6443 30.2368 72.7577C30.2368 72.7016 30.3295 72.6014 30.385 72.5965C30.6146 72.5782 30.8469 72.589 31.1218 72.589C31.1655 73.5586 31.2097 74.5374 31.2571 75.5992V75.5986Z" fill="white"/>
<path d="M9.61426 40.7537C9.64552 39.7776 9.6466 38.7993 9.71559 37.8259C9.83847 36.0915 10.0584 34.3657 10.4637 32.6733C10.7698 31.3975 11.1115 30.1277 11.5012 28.8757C11.9696 27.3703 12.5943 25.921 13.31 24.5159C14.1029 22.9593 15.003 21.4604 16.0987 20.1006C16.8829 19.1277 17.7334 18.198 18.6314 17.3291C20.0742 15.9326 21.7246 14.8073 23.5539 13.9686C25.0748 13.2717 26.6648 12.7823 28.34 12.6465C29.204 12.5764 30.0766 12.5295 30.9411 12.5689C32.1743 12.6249 33.3837 12.8664 34.5652 13.2388C36.7297 13.9212 38.6781 15.0088 40.4012 16.4673C41.3396 17.2612 42.195 18.1597 43.0395 19.056C44.1159 20.1981 44.9804 21.5046 45.7862 22.8477C46.5057 24.048 47.1315 25.2968 47.6667 26.5888C48.4212 28.4089 49.0508 30.2722 49.4474 32.206C49.6905 33.3918 49.9217 34.5813 50.1072 35.7773C50.223 36.5254 50.2721 37.2875 50.3006 38.0453C50.3524 39.3965 50.3971 40.7499 50.3847 42.1017C50.3761 43.0012 50.2996 43.904 50.1885 44.7971C50.0317 46.0599 49.8538 47.3233 49.614 48.5726C49.269 50.3739 48.7721 52.1385 48.0822 53.8406C47.6591 54.8846 47.2333 55.9313 46.7315 56.9386C45.8358 58.7367 44.7556 60.4226 43.4723 61.9749C41.7966 64.002 39.8617 65.7245 37.5511 66.9965C35.8269 67.9457 33.9922 68.5752 32.0325 68.8404C30.8791 68.9961 29.7219 69.0096 28.5728 68.9099C26.9257 68.7671 25.3422 68.3321 23.8233 67.6605C22.3045 66.989 20.9102 66.1201 19.6312 65.0697C18.5085 64.1475 17.4968 63.1121 16.566 61.9926C15.4401 60.6387 14.485 59.1727 13.6453 57.6323C12.9424 56.3436 12.3539 54.9999 11.8451 53.6207C11.346 52.2679 10.9105 50.8962 10.6108 49.4873C10.3607 48.3123 10.1527 47.1276 9.96352 45.9413C9.68971 44.2247 9.61318 42.4924 9.6148 40.7542L9.61426 40.7537ZM24.6566 65.6475C24.6226 65.5025 24.614 65.4432 24.5952 65.3871C24.0583 63.8095 23.5172 62.2336 22.9852 60.6544C22.878 60.3369 22.6915 60.0927 22.4457 59.8691C21.9617 59.4276 21.4427 59.0083 21.0374 58.5006C19.5331 56.6142 18.2826 54.5661 17.2974 52.3611C16.7142 51.0557 16.2798 49.7023 15.9877 48.301C15.6945 46.8926 15.5112 45.4719 15.4395 44.0355C15.3479 42.1938 15.3975 40.3537 15.5597 38.5191C15.6514 37.4837 15.7834 36.4494 15.958 35.4248C16.1682 34.1889 16.3827 32.9482 16.7034 31.7382C17.2607 29.634 17.8887 27.5487 18.5155 25.4639C18.6394 25.0516 18.8653 24.6619 19.0922 24.2917C19.2717 23.9984 19.581 23.8459 19.9308 23.9494C20.3227 24.0647 20.7318 24.1752 21.0794 24.3795C23.0693 25.5518 24.7488 27.0658 26.0504 28.9867C27.3779 30.9459 28.1648 33.1077 28.4855 35.4426C28.6127 36.3675 28.6903 37.2988 28.7922 38.2264C28.8283 38.553 28.9679 38.8106 29.2977 38.9222C29.6454 39.0392 29.9968 39.0548 30.3547 38.954C30.608 38.8829 30.7487 38.7325 30.7907 38.47C30.9023 37.771 31.0392 37.0757 31.1389 36.3755C31.5011 33.838 32.3667 31.4994 33.8548 29.4017C34.4865 28.5119 35.1904 27.6845 36.0926 27.0588C37.1463 26.3279 38.2211 25.6278 39.2882 24.9163C39.6046 24.7056 39.9253 24.5008 40.2681 24.2776C40.5511 24.8139 40.848 25.2979 41.0706 25.8143C41.8457 27.6134 42.4073 29.4799 42.8423 31.3916C43.3753 33.7351 43.6992 36.1061 43.8076 38.5007C43.9375 41.3697 43.7122 44.2231 43.2239 47.0527C42.9312 48.7494 42.5868 50.4343 42.0009 52.0609C41.1849 54.3278 40.0816 56.4234 38.4065 58.1848C37.8885 58.7291 37.4282 59.3328 36.7691 59.7327C36.6516 59.8039 36.561 59.9607 36.5125 60.0976C35.9466 61.6843 35.3904 63.2749 34.8336 64.8649C34.7694 65.0481 34.7166 65.2351 34.6455 65.4615C34.7112 65.4195 34.7409 65.406 34.7646 65.3844C35.4254 64.791 36.0932 64.2057 36.7437 63.6015C38.1187 62.3263 39.479 61.0376 40.6147 59.5333C41.5148 58.3411 42.2952 57.0766 42.9371 55.7292C43.5629 54.4157 44.0647 53.0558 44.4215 51.6426C44.9157 49.6851 45.3156 47.7113 45.5452 45.7031C45.7587 43.8355 45.8384 41.9631 45.8093 40.0843C45.7808 38.2226 45.5948 36.3745 45.3059 34.5398C44.9658 32.3785 44.4835 30.2468 43.8351 28.1529C43.1856 26.0552 42.3685 24.034 41.2453 22.1427C41.0642 21.8382 40.8674 21.5429 40.6723 21.2346C38.5321 22.6073 36.5201 24.0885 34.6988 25.8175C32.8749 27.5492 31.2941 29.4788 30.0173 31.6568C29.9747 31.6239 29.9494 31.6115 29.9343 31.591C29.8971 31.5409 29.8621 31.4886 29.8303 31.4347C28.1993 28.7156 26.3253 26.1878 23.9883 24.0249C22.6645 22.7998 21.219 21.7482 19.5913 20.9581C19.2054 20.7705 19.0976 20.8028 18.8615 21.1623C18.0859 22.3422 17.4386 23.5899 16.8748 24.8835C15.7694 27.4199 15.0455 30.0695 14.5675 32.7859C14.2845 34.3921 14.0463 36.008 13.8436 37.626C13.6124 39.4704 13.5024 41.325 13.5666 43.1866C13.6437 45.4336 13.8765 47.658 14.395 49.8511C15.1388 52.996 16.3752 55.9345 18.1226 58.6445C19.5638 60.8797 21.3424 62.8394 23.3307 64.6045C23.7301 64.9592 24.1704 65.268 24.6561 65.6485L24.6566 65.6475ZM18.0865 46.9541C18.0563 46.9767 18.0261 46.9999 17.9959 47.0225C18.246 47.6035 18.4772 48.1932 18.7489 48.7629C19.4291 50.1885 20.1852 51.5737 21.0724 52.8834C22.0889 54.3839 23.2299 55.7723 24.6954 56.8648C26.4024 58.1373 28.3103 58.7609 30.4436 58.5572C32.5413 58.3572 34.3949 57.5407 35.9838 56.162C37.7969 54.5882 38.967 52.6026 39.6111 50.3C40.0552 48.7128 40.1269 47.0947 39.9415 45.4676C39.7307 43.6146 39.1239 41.8909 38.1348 40.3058C37.3743 39.0882 36.4047 38.0636 35.2421 37.2255C34.272 36.5265 33.1946 36.0629 31.9899 35.7918C31.9064 36.4408 31.8207 37.0687 31.7517 37.6982C31.7442 37.7683 31.8153 37.8653 31.8757 37.9219C32.7262 38.7066 33.5783 39.4892 34.4353 40.267C35.2529 41.0091 35.9493 41.8435 36.4532 42.833C37.1393 44.1805 37.4972 45.6136 37.5856 47.1168C37.7112 49.2517 37.3905 51.2864 36.1853 53.1103C35.4453 54.2303 34.4493 55.0377 33.1811 55.4915C31.5593 56.0725 29.8955 56.1216 28.2182 55.8186C26.6638 55.5378 25.3357 54.8366 24.3591 53.563C23.4622 52.394 22.9712 51.0385 22.6586 49.6193C22.5772 49.2501 22.3972 49.0669 22.0878 48.9186C21.2228 48.5042 20.3653 48.0735 19.5045 47.6499C19.0318 47.4171 18.5586 47.1858 18.0854 46.9541H18.0865ZM26.8195 45.0251C26.8352 44.9237 26.8454 44.8628 26.8546 44.8019C26.9672 44.035 27.4604 43.4987 27.974 42.9802C28.3847 42.5657 28.8973 42.3275 29.4654 42.2299C30.5751 42.0397 31.5825 42.3226 32.5036 42.9441C32.8124 43.1527 33.1078 43.3801 33.422 43.6081C33.6931 43.0319 33.9437 42.4779 34.2159 41.9346C34.3011 41.7648 34.2413 41.6705 34.1302 41.5643C32.5111 40.011 29.9521 39.5744 27.8937 40.509C25.9615 41.3859 24.9336 42.9974 24.3753 44.9512C24.0977 45.9235 24.1128 46.926 24.2486 47.9366C24.448 49.4123 24.8894 50.7846 25.7658 51.9978C26.5398 53.0693 27.5703 53.7829 28.8833 53.9748C31.223 54.3171 32.9294 53.2057 34.3458 51.4788C34.0478 51.0589 33.754 50.6439 33.4603 50.2294C32.1037 51.2217 31.5879 51.4556 30.4431 51.6685C29.3931 51.8636 28.5222 51.627 27.8312 50.7603C27.4577 50.292 27.2399 49.7621 27.0362 49.2183C26.8659 48.7634 26.8141 48.287 26.8325 47.7356H32.17C32.1603 47.6434 32.164 47.6149 32.1538 47.5928C31.8202 46.8484 31.4941 46.1003 31.1405 45.3652C31.0909 45.2622 30.9082 45.1727 30.7821 45.1657C30.0652 45.1259 29.3468 45.1135 28.6294 45.0897C28.0387 45.0703 27.448 45.0477 26.8201 45.0256L26.8195 45.0251ZM37.1377 22.8143C37.6595 22.4079 38.1521 22.0058 38.6657 21.6318C38.87 21.483 38.9126 21.3494 38.7773 21.144C38.4232 20.605 38.0971 20.045 37.7139 19.5271C36.8531 18.3634 35.7838 17.4229 34.4881 16.7724C32.426 15.7365 30.2458 15.5122 27.9902 15.9272C26.4121 16.2178 25.0086 16.8872 23.7851 17.9215C22.7298 18.8135 21.945 19.9211 21.2815 21.1499C21.8474 21.5326 22.4069 21.9115 22.9669 22.2904C26.4848 16.6371 33.8985 16.574 37.1366 22.8138L37.1377 22.8143ZM20.3399 24.5202C19.871 27.276 20.1852 29.8399 21.6399 32.2033C23.1744 34.6972 25.4882 36.1481 28.2451 37.0638C28.0408 35.9099 27.8414 34.8087 27.6549 33.7049C27.6237 33.5206 27.5288 33.4645 27.3682 33.4122C27.0556 33.3104 26.7301 33.215 26.4519 33.0474C25.5114 32.4814 24.7127 31.7452 24.0847 30.8467C23.7484 30.3654 23.3787 29.8609 23.2197 29.3106C22.9125 28.2478 22.7497 27.1428 22.5099 26.0595C22.477 25.9118 22.3751 25.7367 22.2517 25.659C21.654 25.2812 21.0379 24.9314 20.3405 24.5207L20.3399 24.5202ZM37.5592 29.7596C37.584 29.7731 37.6088 29.7871 37.633 29.8005C38.296 29.1241 38.9638 28.4526 39.6165 27.7659C39.6952 27.6834 39.7243 27.5228 39.7221 27.3994C39.7108 26.7548 39.6828 26.1102 39.6585 25.4655C39.6558 25.3998 39.6407 25.334 39.6262 25.2322C38.9487 25.6849 38.3051 26.1204 37.6546 26.5446C37.5091 26.6394 37.453 26.7456 37.459 26.9181C37.4886 27.7956 37.508 28.6735 37.5328 29.551C37.5349 29.6205 37.55 29.6901 37.5592 29.7596Z" fill="#010029"/>
<path d="M42.6746 13.5929C42.6057 13.5428 42.52 13.5132 42.5022 13.4598C42.4812 13.3973 42.4952 13.2981 42.5345 13.2437C42.7744 12.909 43.0223 12.5807 43.274 12.2546C43.5909 11.8434 43.9121 11.4354 44.2339 11.0279C44.3369 10.8975 44.4538 10.76 44.6322 10.9067C44.7993 11.0436 44.6931 11.1864 44.5983 11.305C44.0496 11.9895 43.4977 12.6713 42.942 13.3504C42.8703 13.4382 42.7727 13.5051 42.6746 13.5929Z" fill="black"/>
<path d="M21.6244 10.4561C21.5829 10.5035 21.5382 10.5989 21.4859 10.6038C21.4185 10.6097 21.3097 10.5606 21.2795 10.5035C21.1183 10.1941 20.9728 9.87668 20.8278 9.55922C20.5896 9.03857 20.3551 8.51576 20.1217 7.99295C20.0856 7.91156 20.0371 7.82155 20.0441 7.73963C20.0517 7.65716 20.104 7.54182 20.1686 7.51272C20.2274 7.48685 20.3691 7.5332 20.4047 7.59087C20.5071 7.75688 20.5777 7.94282 20.6553 8.12338C20.9491 8.80519 21.2412 9.48699 21.5317 10.1699C21.5668 10.2518 21.5872 10.3397 21.6244 10.4561Z" fill="black"/>
<path d="M52.7309 49.7444H53.6595C53.6369 49.8926 53.6175 50.0203 53.5927 50.1858C53.2871 50.0456 53.0068 49.9174 52.7266 49.7891L52.7309 49.7444Z" fill="black"/>
<path d="M7.45616 52.9141C7.20823 53.0456 6.9603 53.1771 6.68973 53.3205C6.64715 53.1771 6.61266 53.0612 6.56738 52.9098C6.87999 52.8882 7.16026 52.8693 7.44053 52.8499C7.44538 52.871 7.45077 52.8925 7.45562 52.9135L7.45616 52.9141Z" fill="black"/>
<path d="M49.745 59.1533C49.8135 59.1889 49.8717 59.212 49.9229 59.2465C50.2652 59.4767 50.6074 59.7074 50.9459 59.9429C51.0106 59.9876 51.0806 60.0469 51.1076 60.1159C51.1286 60.1687 51.1033 60.2587 51.0666 60.3094C51.0456 60.338 50.9443 60.345 50.9076 60.3202C50.5002 60.0426 50.0954 59.7607 49.6987 59.4686C49.6513 59.4336 49.6394 59.3301 49.6394 59.2589C49.6394 59.225 49.7062 59.1905 49.7456 59.1544L49.745 59.1533Z" fill="black"/>
<path d="M39.5059 72.8062C39.3862 72.4752 39.265 72.1427 39.1448 71.8096C39.072 71.608 38.9928 71.4086 38.9357 71.2027C38.9173 71.138 38.9599 71.0566 38.9745 70.9828C39.0418 71.0238 39.1459 71.0496 39.1712 71.1089C39.2898 71.3876 39.3879 71.6754 39.4919 71.96C39.556 72.1357 39.6218 72.3114 39.6811 72.4892C39.7296 72.6348 39.7112 72.7555 39.5059 72.8062Z" fill="black"/>
<path d="M10.8101 62.9251C11.0726 62.7731 11.3124 62.6335 11.5523 62.4944C11.5647 62.5112 11.5765 62.5279 11.5889 62.5446C11.4046 62.7677 11.2203 62.9903 11.0138 63.2399C10.9378 63.1224 10.8818 63.0367 10.8096 62.9251H10.8101Z" fill="black"/>
<path d="M20.1151 70.364C20.3 70.5187 20.2983 70.8604 20.1275 70.9639C20.0854 70.9893 20.0062 70.9823 19.9583 70.9596C19.9297 70.9461 19.9243 70.8739 19.9184 70.827C19.9151 70.8033 19.9324 70.7764 19.9432 70.7521C19.996 70.6314 20.0499 70.5106 20.1151 70.364Z" fill="black"/>
<path d="M28.2754 73.6615C28.2883 73.4394 28.2996 73.2411 28.312 73.0271C28.5217 73.0384 28.5681 73.1565 28.546 73.2982C28.5233 73.4416 28.6031 73.6658 28.2754 73.6615Z" fill="black"/>
<path d="M17.5312 69.1298C17.4234 69.4073 17.3151 69.6849 17.1944 69.9954C17.1001 69.9269 17.0273 69.8741 16.9292 69.803C17.1162 69.561 17.293 69.333 17.4693 69.105C17.4897 69.1131 17.5108 69.1217 17.5312 69.1298Z" fill="black"/>
<path d="M35.2638 72.8466C35.3576 73.1587 35.4513 73.4707 35.55 73.8C35.4503 73.8243 35.3759 73.8426 35.2676 73.8696C35.246 73.5149 35.2255 73.1818 35.2056 72.8482C35.225 72.8477 35.2444 72.8471 35.2638 72.8466Z" fill="black"/>
<path d="M25.5352 73.9741C25.4269 73.9509 25.3525 73.9353 25.2441 73.9127C25.3433 73.5882 25.4371 73.2826 25.5309 72.977C25.5492 72.9813 25.5675 72.9856 25.5859 72.9899C25.5697 73.3047 25.5535 73.6195 25.5352 73.9741Z" fill="black"/>
<path d="M24.6566 65.6474C24.171 65.2675 23.7307 64.9581 23.3313 64.6035C21.3435 62.8378 19.5644 60.878 18.1231 58.6434C16.3758 55.934 15.1388 52.9949 14.3955 49.85C13.8771 47.6569 13.6442 45.432 13.5671 43.1855C13.503 41.3234 13.613 39.4693 13.8442 37.6249C14.0468 36.0063 14.2856 34.391 14.568 32.7849C15.0466 30.0684 15.7699 27.4188 16.8754 24.8824C17.4392 23.5888 18.087 22.3411 18.8621 21.1613C19.0981 20.8018 19.2059 20.77 19.5918 20.957C21.219 21.7471 22.6646 22.7987 23.9888 24.0238C26.3258 26.1867 28.1999 28.7145 29.8308 31.4337C29.8631 31.487 29.8976 31.5398 29.9348 31.59C29.9499 31.6099 29.9753 31.6228 30.0178 31.6557C31.2952 29.4777 32.8755 27.5487 34.6994 25.8164C36.5206 24.0874 38.5321 22.6063 40.6729 21.2335C40.868 21.5418 41.0647 21.8366 41.2458 22.1417C42.3685 24.0329 43.1862 26.0541 43.8356 28.1518C44.484 30.2457 44.9659 32.3774 45.3065 34.5387C45.5954 36.3734 45.7819 38.2215 45.8099 40.0832C45.8385 41.9621 45.7587 43.8339 45.5458 45.702C45.3167 47.7103 44.9168 49.684 44.422 51.6416C44.0652 53.0542 43.5629 54.4146 42.9377 55.7281C42.2958 57.0755 41.5153 58.34 40.6152 59.5322C39.4796 61.0365 38.1192 62.3252 36.7443 63.6004C36.0932 64.2041 35.4254 64.7899 34.7652 65.3834C34.7414 65.4044 34.7118 65.4184 34.646 65.4604C34.7172 65.2335 34.77 65.047 34.8341 64.8638C35.3909 63.2738 35.9471 61.6833 36.5131 60.0965C36.5616 59.9602 36.6521 59.8033 36.7696 59.7316C37.4282 59.3317 37.8891 58.7281 38.407 58.1837C40.0822 56.4228 41.1855 54.3268 42.0015 52.0598C42.5873 50.4332 42.9318 48.7478 43.2244 47.0516C43.7122 44.222 43.938 41.3686 43.8081 38.4997C43.6993 36.105 43.3759 33.734 42.8428 31.3905C42.4079 29.4793 41.8463 27.6123 41.0712 25.8132C40.8486 25.2968 40.5516 24.8128 40.2687 24.2766C39.9253 24.4997 39.6052 24.7045 39.2888 24.9153C38.2216 25.6267 37.1469 26.3268 36.0932 27.0577C35.1909 27.6834 34.4865 28.5102 33.8554 29.4006C32.3672 31.4978 31.5022 33.837 31.1394 36.3745C31.0392 37.0751 30.9028 37.7699 30.7913 38.4689C30.7492 38.732 30.6086 38.8818 30.3552 38.9529C29.9974 39.0537 29.6459 39.0381 29.2983 38.9211C28.9684 38.8101 28.8288 38.5525 28.7927 38.2253C28.6909 37.2972 28.6127 36.3658 28.4861 35.4415C28.1654 33.1066 27.3785 30.9448 26.051 28.9856C24.7493 27.0647 23.0699 25.5507 21.08 24.3784C20.7323 24.1736 20.3232 24.0631 19.9314 23.9483C19.5811 23.8454 19.2722 23.9979 19.0927 24.2906C18.8653 24.6609 18.64 25.0511 18.516 25.4629C17.8892 27.5476 17.2613 29.6335 16.704 31.7371C16.3838 32.9471 16.1693 34.1878 15.9586 35.4237C15.784 36.4483 15.6519 37.4826 15.5603 38.518C15.398 40.3527 15.3485 42.1922 15.4401 44.0344C15.5118 45.4708 15.695 46.8915 15.9882 48.2999C16.2798 49.7012 16.7148 51.0546 17.2979 52.36C18.2827 54.5655 19.5336 56.6136 21.0379 58.4995C21.4427 59.0072 21.9623 59.4266 22.4463 59.868C22.6915 60.0922 22.8785 60.3358 22.9858 60.6533C23.5178 62.2325 24.0589 63.8085 24.5957 65.386C24.6146 65.4421 24.6232 65.5014 24.6572 65.6464L24.6566 65.6474Z" fill="white"/>
<path d="M18.0865 46.9541C18.5598 47.1858 19.033 47.417 19.5057 47.6499C20.3664 48.0735 21.2239 48.5042 22.089 48.9186C22.3984 49.0669 22.5784 49.2506 22.6598 49.6193C22.9724 51.0384 23.4634 52.3934 24.3602 53.563C25.3374 54.8372 26.6655 55.5384 28.2193 55.8186C29.8961 56.1215 31.5605 56.0725 33.1822 55.4915C34.4505 55.0371 35.4465 54.2297 36.1865 53.1103C37.3917 51.2869 37.7118 49.2517 37.5868 47.1168C37.4984 45.6136 37.1405 44.1805 36.4544 42.833C35.9504 41.8435 35.2541 41.0091 34.4364 40.267C33.5795 39.4892 32.7268 38.7066 31.8768 37.9219C31.8159 37.8658 31.7448 37.7683 31.7529 37.6982C31.8219 37.0687 31.9076 36.4408 31.9911 35.7918C33.1963 36.0629 34.2731 36.5265 35.2433 37.2255C36.4064 38.0636 37.3755 39.0882 38.136 40.3058C39.1256 41.8904 39.7319 43.6146 39.9427 45.4676C40.1275 47.0942 40.0564 48.7127 39.6123 50.3C38.9676 52.6031 37.7975 54.5881 35.9849 56.162C34.396 57.5412 32.5425 58.3572 30.4448 58.5572C28.3115 58.7609 26.4041 58.1373 24.6966 56.8648C23.2311 55.7723 22.0901 54.3833 21.0736 52.8834C20.1864 51.5742 19.4302 50.189 18.75 48.7629C18.4778 48.1926 18.2466 47.603 17.9971 47.0225C18.0273 46.9999 18.0574 46.9767 18.0876 46.9541H18.0865Z" fill="white"/>
<path d="M26.8198 45.0251C27.4477 45.0477 28.0384 45.0698 28.6291 45.0892C29.347 45.1129 30.0649 45.1253 30.7818 45.1652C30.9079 45.1722 31.0906 45.2617 31.1402 45.3646C31.4938 46.0993 31.8199 46.8474 32.1535 47.5922C32.1637 47.6143 32.16 47.6429 32.1697 47.7351H26.8321C26.8138 48.2864 26.865 48.7629 27.0359 49.2178C27.2396 49.7616 27.4574 50.2914 27.8309 50.7598C28.5218 51.6265 29.3934 51.8631 30.4428 51.668C31.5881 51.4551 32.1034 51.2212 33.46 50.2289C33.7542 50.6434 34.048 51.0584 34.3455 51.4783C32.9285 53.2046 31.2221 54.3165 28.883 53.9743C27.57 53.7824 26.5395 53.0682 25.7655 51.9973C24.8891 50.7841 24.4472 49.4118 24.2483 47.9361C24.1119 46.9255 24.0968 45.923 24.3749 44.9507C24.9333 42.9969 25.9612 41.3853 27.8934 40.5084C29.9523 39.5744 32.5108 40.0104 34.1299 41.5638C34.2409 41.6705 34.3008 41.7642 34.2156 41.934C33.9434 42.4779 33.6928 43.0319 33.4217 43.6076C33.1075 43.3796 32.8121 43.1516 32.5033 42.9435C31.5822 42.3221 30.5748 42.0386 29.4651 42.2294C28.897 42.3269 28.3844 42.5652 27.9737 42.9796C27.4601 43.4981 26.9669 44.0344 26.8542 44.8014C26.8451 44.8623 26.8354 44.9232 26.8192 45.0245L26.8198 45.0251Z" fill="white"/>
<path d="M37.1378 22.8143C33.8991 16.5746 26.4855 16.6376 22.9681 22.291C22.4081 21.9121 21.8481 21.5332 21.2827 21.1505C21.9457 19.9216 22.7309 18.814 23.7863 17.922C25.0098 16.8877 26.4133 16.2183 27.9914 15.9278C30.247 15.5128 32.4266 15.737 34.4893 16.7729C35.785 17.4235 36.8543 18.364 37.7151 19.5276C38.0983 20.0456 38.4238 20.6056 38.7785 21.1446C38.9138 21.3499 38.8712 21.4836 38.6669 21.6323C38.1533 22.0064 37.6606 22.4079 37.1389 22.8148L37.1378 22.8143Z" fill="white"/>
<path d="M20.34 24.5202C21.0369 24.9314 21.6529 25.2807 22.2512 25.6585C22.3746 25.7366 22.477 25.9113 22.5094 26.059C22.7492 27.1423 22.912 28.2472 23.2192 29.3101C23.3782 29.8604 23.7474 30.3643 24.0843 30.8462C24.7122 31.7446 25.511 32.4809 26.4515 33.0468C26.7296 33.2144 27.0551 33.3098 27.3677 33.4117C27.5289 33.464 27.6237 33.52 27.6545 33.7044C27.841 34.8082 28.0404 35.9093 28.2446 37.0633C25.4883 36.1476 23.1745 34.6966 21.6395 32.2028C20.1853 29.8394 19.8705 27.2754 20.3395 24.5196L20.34 24.5202Z" fill="white"/>
<path d="M37.5592 29.7596C37.55 29.6901 37.5349 29.6205 37.5328 29.551C37.508 28.6735 37.4891 27.7955 37.4589 26.9181C37.453 26.7456 37.5096 26.6394 37.6546 26.5446C38.3051 26.1204 38.9487 25.6849 39.6261 25.2322C39.6407 25.334 39.6563 25.3998 39.6585 25.4655C39.6827 26.1102 39.7108 26.7548 39.7221 27.3994C39.7242 27.5228 39.6951 27.6834 39.6164 27.7659C38.9637 28.452 38.2959 29.1241 37.633 29.8005C37.6082 29.7871 37.5834 29.7731 37.5592 29.7596Z" fill="white"/>
</svg>
